<svg xmlns="http://www.w3.org/2000/svg" width="253.399" height="314.583" viewBox="0 0 253.399 314.583">
  <path id="Path_4" data-name="Path 4" d="M0,0V137.562a206.687,206.687,0,0,0,7.924,57.243,150.455,150.455,0,0,0,10.5,27.23c4.325,8.372,11.458,17.962,21.207,28.5a259.3,259.3,0,0,0,57.664,46.493L126.7,314.582l29.406-17.549a259.3,259.3,0,0,0,57.661-46.493c9.743-10.539,16.879-20.129,21.21-28.5a150.893,150.893,0,0,0,10.5-27.23,206.687,206.687,0,0,0,7.924-57.243V0ZM239.615,137.562a192.794,192.794,0,0,1-7.385,53.427,136.741,136.741,0,0,1-9.494,24.718c-3.763,7.274-10.188,15.848-19.09,25.476A238.078,238.078,0,0,1,178.2,264.932q-3.422,2.754-6.958,5.406a254.564,254.564,0,0,1-22.2,14.861L126.7,298.535l-8.352-4.984L104.353,285.2a254.96,254.96,0,0,1-22.2-14.861q-3.536-2.649-6.955-5.406a238.147,238.147,0,0,1-25.453-23.749q-1.669-1.805-3.224-3.561a131.284,131.284,0,0,1-13.236-17.344c-.972-1.57-1.868-3.1-2.627-4.568-.425-.826-.829-1.737-1.245-2.6q-1.445-3-2.8-6.322c-.627-1.537-1.242-3.119-1.836-4.756-1.274-3.488-2.495-7.133-3.619-11.04-1.083-3.76-2.029-7.579-2.876-11.429a190.919,190.919,0,0,1-3.464-21.47q-.347-3.378-.58-6.788-.466-6.817-.466-13.74V13.78H239.615Zm-88.628-12.557a3.537,3.537,0,0,0,2.928,4.3,3.658,3.658,0,0,0,3.262-1.092c.079-.085.264-.088.308.018a4.357,4.357,0,0,0,.908,1.356,4.8,4.8,0,0,0,1.324.838c.284.123.574.231.867.328.164.056.328.108.495.158a4.573,4.573,0,0,0,.518.152c.261.05.337.439,0,.612-11.74,6.021-24.138-1.511-24.138-10.688a48.954,48.954,0,0,1,2.723-15.643.855.855,0,0,1,.911-.6c13.623,2.92,14.05,14.633,14.3,16.811a.233.233,0,0,1-.269.252,3.941,3.941,0,0,0-4.141,3.195m21.183,63.606a6.664,6.664,0,0,1,.375,10.521.822.822,0,0,1-1.042-.079c-3.622-3.157-5.441,5.18-5.341,8.475a.568.568,0,0,1-.782.533c-17.377-7.16-1.288-25.468,6.791-19.45m-45.529,3.751a.286.286,0,0,1,.5-.1c2.064,2.357,8.858,12.639,11.549,19.262a74.776,74.776,0,0,1,4.457,15.781c.466,2.776.606,5.576,1.7,8.205a16.924,16.924,0,0,0,4.882,6.609c4.182,3.417,9.748,4.618,15.134,5.043a22.119,22.119,0,0,0,8.565-.635,17.6,17.6,0,0,0,7.895-5.7,36.1,36.1,0,0,0,3.423-5.043,45.281,45.281,0,0,1,2.187-4.223,6.719,6.719,0,0,0,4.328-2.088c.773-1.025,1.174-3.212,1.71-4.846,1.625-4.981,4.322-6.656,8.571-10.068a18.88,18.88,0,0,0,4.384-4.4c2.158-3.432,1.883-7.886.706-11.763s-3.154-7.485-4.258-11.382c-.269-.96-.559-2.117-.849-3.344a56.993,56.993,0,0,1,1.078-31.087c.023-.073.047-.146.073-.223,4.187-8.144,6.009-18.012,6.92-26.946,1.736-2.735,3.042-4.539,3.042-4.539,6.343-8.923,1.444-16.536-1.455-23.746a71.657,71.657,0,0,0-7.927-27.456c11.289-12.038,23.4-46.964,14.167-44.689-1.953.471-13.473,10.759-23.438,14.038-4.8-4.908-9.467-8.8-23.406-9.245a.9.9,0,0,0-.644,1.543,7.7,7.7,0,0,1,2.5,6.48c-3.458-4.059-8.272-5.084-11.83-5.283,0,0,2.507-7.321-2.808-9.028-3.06-.993-6.685.849-10.627,3.247a118.286,118.286,0,0,0-10.147,7.151c-11.672,2.788-25.075,8.038-37.766,1.886a.846.846,0,0,0-1.23.9,18.147,18.147,0,0,0,13,13.681.809.809,0,0,1,.041,1.532C100.151,55.514,80.543,45.1,59.506,64.609a.847.847,0,0,0,.706,1.464c3.725-.717,9.933-1.174,12.334,2.975a.917.917,0,0,1-.594,1.37c-16.794,3.514-36.091,18.82-42.2,38.616a.853.853,0,0,0,1.329.952c3.414-2.7,10.6-6.472,19.139.1a.541.541,0,0,1,.123.735c-5.543,7.7-17.456,17.956-28.308,22.879v3.865a190.591,190.591,0,0,0,2.018,27.664c41.89-59.31,88.379-89.7,102.995-97.56a3.335,3.335,0,0,0,1.7-3.321c-1.423-14.243,6.668-24.217,14.44-30.261,5.862-4.6,12.765-7.781,13.11-7.617.158.076-28.952,17.06-18.24,43.966,3.836-11.564,17.134-6.349,17.245-23.459a.2.2,0,0,1,.4-.053c4.108,17.18-9.218,16.325-9.825,27.23a2.781,2.781,0,0,1-1.561,2.354c-7.59,3.561-18.908,4.07-22.741,4.141a.407.407,0,0,0-.217.741A35.169,35.169,0,0,0,139.78,86.5a.417.417,0,0,1,.264.747,24.122,24.122,0,0,1-7.5,3.9.427.427,0,0,0,.111.829c4.366.366,8.7-.208,13.043.589a32.477,32.477,0,0,1,11.707,4.6,28.176,28.176,0,0,1,8.615,8.513c2.884,4.568,4.161,9.886,5.233,15.116,1.045,5.113,2.164,10.179,3.063,15.312,1.912,10.931,3.461,21.924,4.858,32.932.594,4.7,1.171,10.718,1.687,15.728a1.638,1.638,0,0,0,2.056,1.409l4.392-1.16a3.127,3.127,0,0,0,2.328-3.171c-.656-13.8-3.83-79.431-4.75-81.015-1.8-3.081-4.319-2.1-4.018-10.876a30.065,30.065,0,0,1,4.7-14.665s6.173,9.063,7.546,14.3a11.36,11.36,0,0,1-1.435,9.385c-2.062,3.171-1.655,7.163-1.8,10.776-.3,7.669,5.291,74.608,5.291,74.608l4.761,7.584a1.884,1.884,0,0,1-.445,2.51c-2.023,1.543-5.807,4.2-7.64,4.032-4.029-.366-7.989-6.234-13.532-8.615a.592.592,0,0,0-.77.8c3.693,8.451-2.764,21.353-12.507,22.3a.321.321,0,0,0-.2.565c1.748,1.458,6.475,5.971,7.139,12.609a1.551,1.551,0,0,1-1.777,1.792c-5.748-.767-13.066-3.189-15.315-6.108a18.328,18.328,0,0,1-2.715-4.879c.114.284.214.562.331.852-.184-.413-.366-.843-.5-1.23.032.126.117.246.167.378-2.469-6.442-1.529-12.835-25.23-39.427-.111-.108.047-.3.143-.237,8.258,5.025,12.832,8.843,14.767,10.735.173.167.439-.038.357-.266A110,110,0,0,0,132.8,168.2a.463.463,0,0,0-.647-.158c-3.13,2.023-7.526,5.265-13.907,4.457-29.424-3.719-27.535-50.1-7.558-77.17a.675.675,0,0,0-.984-.908C82.157,118,47.5,165.537,47.017,225.368q3.835,4.832,8.8,10.211a237.325,237.325,0,0,0,52.774,42.528L126.7,288.915l14.308-8.536c-21.019-39.544-15.7-82.822-14.366-88.016M196.979,43.01c-.041-.085-.12-.184.076-.3.182-.091.363-.19.545-.287q.751-.4,1.5-.814.769-.435,1.534-.881.786-.457,1.558-.931t1.558-.975c.518-.331,1.031-.665,1.54-1.007s1-.679,1.5-1.028.963-.688,1.438-1.04c.457-.34.908-.688,1.356-1.04q.637-.505,1.256-1.031c.384-.328.761-.662,1.133-1.007.477-.445,1.247-1.432,1.379-1.4.129.091-.12,1.078-.249,1.6-.144.586-.34,1.163-.527,1.736-.091.275-.182.551-.278.826-1.865,6.89-8.808,9.221-11.93,15.62-.088.179-.211.138-.225.006a31.1,31.1,0,0,0-1.7-5.28c-.384-.837-1.283-2.4-1.461-2.764M150.9,227.415a.524.524,0,0,1,1-.038c1.163,3.382,4.674,7.9,12.24,9.511,4.586,1-.811,5.564-6.9,3.775-4.9-1.514-8.22-6.963-6.343-13.248" transform="translate(0 0.001)" fill="#006833"/>
</svg>
