<svg id="Group_161" data-name="Group 161" xmlns="http://www.w3.org/2000/svg" xmlns:xlink="http://www.w3.org/1999/xlink" width="77.527" height="77.438" viewBox="0 0 77.527 77.438">
  <defs>
    <clipPath id="clip-path">
      <rect id="Rectangle_781" data-name="Rectangle 781" width="77.527" height="77.438" fill="#006130"/>
    </clipPath>
  </defs>
  <g id="Group_160" data-name="Group 160" clip-path="url(#clip-path)">
    <path id="Path_384" data-name="Path 384" d="M22.908,128.434a1.1,1.1,0,0,1-1.1-1.1V116.085a3.319,3.319,0,0,0-3.472-3.134H5.675A3.319,3.319,0,0,0,2.2,116.085v10.528a1.1,1.1,0,0,1-2.2,0V116.085a5.52,5.52,0,0,1,5.675-5.337H18.334a5.52,5.52,0,0,1,5.675,5.337v11.248a1.1,1.1,0,0,1-1.1,1.1" transform="translate(0 -75.89)" fill="#006130"/>
    <path id="Path_385" data-name="Path 385" d="M23.5,79.907a6.723,6.723,0,1,1,6.723-6.723A6.731,6.731,0,0,1,23.5,79.907m0-11.243a4.52,4.52,0,1,0,4.52,4.52,4.525,4.525,0,0,0-4.52-4.52" transform="translate(-11.499 -45.543)" fill="#006130"/>
    <path id="Path_386" data-name="Path 386" d="M171.136,127.715a1.1,1.1,0,0,1-1.1-1.1V116.085a5.52,5.52,0,0,1,5.675-5.337h12.659a5.52,5.52,0,0,1,5.675,5.337v7.378a1.1,1.1,0,0,1-2.2,0v-7.378a3.32,3.32,0,0,0-3.472-3.134H175.709a3.319,3.319,0,0,0-3.471,3.134v10.528a1.1,1.1,0,0,1-1.1,1.1" transform="translate(-116.516 -75.89)" fill="#006130"/>
    <path id="Path_387" data-name="Path 387" d="M240.416,153.719a1.1,1.1,0,0,1-1.1-1.1v-3.87a1.1,1.1,0,0,1,2.2,0v3.87a1.1,1.1,0,0,1-1.1,1.1" transform="translate(-163.991 -101.175)" fill="#006130"/>
    <path id="Path_388" data-name="Path 388" d="M193.536,79.907a6.723,6.723,0,1,1,6.723-6.723,6.731,6.731,0,0,1-6.723,6.723m0-11.243a4.52,4.52,0,1,0,4.52,4.52,4.525,4.525,0,0,0-4.52-4.52" transform="translate(-128.014 -45.543)" fill="#006130"/>
    <path id="Path_389" data-name="Path 389" d="M107.628,129.384a1.1,1.1,0,0,1-1.064-.819l-3.034-11.427a4.03,4.03,0,0,0-3.892-2.993H92.808a4,4,0,0,0-3.929,3.154L86.395,128.52a1.1,1.1,0,0,1-2.151-.477l2.485-11.223a6.191,6.191,0,0,1,6.08-4.879h6.829a6.236,6.236,0,0,1,6.022,4.631L108.693,128a1.1,1.1,0,0,1-1.065,1.385" transform="translate(-57.71 -76.709)" fill="#006130"/>
    <path id="Path_390" data-name="Path 390" d="M107.312,80.1a6.819,6.819,0,1,1,6.819-6.819,6.827,6.827,0,0,1-6.819,6.819m0-11.434a4.615,4.615,0,1,0,4.615,4.615,4.621,4.621,0,0,0-4.615-4.615" transform="translate(-68.863 -45.542)" fill="#006130"/>
    <path id="Path_391" data-name="Path 391" d="M148.73,51.339a1.1,1.1,0,0,1-1.074-.862,3.417,3.417,0,0,0-3.408-2.515H131.589a3.423,3.423,0,0,0-3.388,2.461,1.1,1.1,0,1,1-2.142-.515,5.572,5.572,0,0,1,5.53-4.15h12.659A5.632,5.632,0,0,1,149.806,50a1.1,1.1,0,0,1-1.076,1.342" transform="translate(-86.361 -31.356)" fill="#006130"/>
    <path id="Path_392" data-name="Path 392" d="M149.17,13.937a6.723,6.723,0,1,1,6.723-6.724,6.731,6.731,0,0,1-6.723,6.724m0-11.243a4.52,4.52,0,1,0,4.52,4.52,4.525,4.525,0,0,0-4.52-4.52" transform="translate(-97.611 -0.336)" fill="#006130"/>
    <path id="Path_393" data-name="Path 393" d="M45.757,52.679a1.1,1.1,0,0,1-1.076-1.341,6.192,6.192,0,0,1,6.08-4.88H57.59a6.236,6.236,0,0,1,6.022,4.631,1.1,1.1,0,0,1-2.13.565,4.031,4.031,0,0,0-3.892-2.993H50.76a4,4,0,0,0-3.929,3.154,1.1,1.1,0,0,1-1.075.863" transform="translate(-30.599 -31.835)" fill="#006130"/>
    <path id="Path_394" data-name="Path 394" d="M59.856,13.637a6.819,6.819,0,1,1,6.819-6.819,6.826,6.826,0,0,1-6.819,6.819m0-11.434a4.615,4.615,0,1,0,4.615,4.615A4.621,4.621,0,0,0,59.856,2.2" transform="translate(-36.344)" fill="#006130"/>
    <path id="Path_395" data-name="Path 395" d="M193.881,189.438H173.839a1.1,1.1,0,1,1,0-2.2h17.55l-4.262-4.682a1.1,1.1,0,0,1,0-1.483l4.262-4.682H174.94v1.5a1.1,1.1,0,1,1-2.2,0v-2.6a1.1,1.1,0,0,1,1.1-1.1h20.043a1.1,1.1,0,0,1,.815,1.843l-5.265,5.784L194.7,187.6a1.1,1.1,0,0,1-.815,1.843" transform="translate(-118.368 -119.36)" fill="#006130"/>
    <path id="Path_396" data-name="Path 396" d="M84.385,202.455a36.576,36.576,0,0,1-17.225-4.314,1.1,1.1,0,0,1-.583-.972V183.541a1.1,1.1,0,0,1,1.62-.972,34.349,34.349,0,0,0,32.377,0,1.1,1.1,0,0,1,1.62.972v13.628a1.1,1.1,0,0,1-.584.972,36.573,36.573,0,0,1-17.225,4.314M68.78,196.5a34.342,34.342,0,0,0,31.21,0V185.327a36.536,36.536,0,0,1-31.21,0Zm32.312.668h0Z" transform="translate(-45.622 -125.017)" fill="#006130"/>
    <path id="Path_397" data-name="Path 397" d="M24.043,189.438H4a1.1,1.1,0,0,1-.815-1.843l5.265-5.784-5.265-5.784A1.1,1.1,0,0,1,4,174.184H24.043a1.1,1.1,0,0,1,1.1,1.1v2.6a1.1,1.1,0,1,1-2.2,0v-1.5H6.493l4.262,4.682a1.1,1.1,0,0,1,0,1.483l-4.262,4.682h17.55a1.1,1.1,0,1,1,0,2.2" transform="translate(-1.987 -119.36)" fill="#006130"/>
  </g>
</svg>
