<svg xmlns="http://www.w3.org/2000/svg" xmlns:xlink="http://www.w3.org/1999/xlink" width="58.394" height="43.318" viewBox="0 0 58.394 43.318">
  <defs>
    <clipPath id="clip-path">
      <rect id="Rectangle_884" data-name="Rectangle 884" width="58.394" height="43.318" fill="#006130"/>
    </clipPath>
  </defs>
  <g id="Group_200" data-name="Group 200" transform="translate(0 0)">
    <g id="Group_199" data-name="Group 199" transform="translate(0 0)" clip-path="url(#clip-path)">
      <path id="Path_406" data-name="Path 406" d="M9.87,70.978a9.871,9.871,0,0,1,0-19.742H24.6a.981.981,0,0,1,.981.98V70a.981.981,0,0,1-.981.981Zm0-17.78a7.909,7.909,0,0,0,0,15.819H23.735l-.112-15.931Z" transform="translate(0 -40.488)" fill="#006130"/>
      <path id="Path_407" data-name="Path 407" d="M140.259,41.237a.989.989,0,0,1-.616-.217l-2.952-2.38a36.934,36.934,0,0,0-23.1-8.15.981.981,0,0,1-.98-.981V11.728a.981.981,0,0,1,.98-.98,36.932,36.932,0,0,0,23.1-8.151l2.952-2.38A.987.987,0,0,1,140.259,0a.969.969,0,0,1,.423.1.984.984,0,0,1,.558.884V40.255a.985.985,0,0,1-.558.884.954.954,0,0,1-.423.1M137.922,4.126A38.982,38.982,0,0,1,114.463,12.7l.11,15.951a38.1,38.1,0,0,1,23.349,8.462l1.539,1.24-.182-35.321Z" transform="translate(-88.989)" fill="#006130"/>
      <path id="Path_408" data-name="Path 408" d="M47.254,150.787a3.934,3.934,0,0,1-3.636-5.439l3.622-8.747a.979.979,0,0,1,.907-.6h6.391a.981.981,0,0,1,.907,1.356L50.89,148.358a3.923,3.923,0,0,1-3.636,2.429M45.433,146.1a1.971,1.971,0,0,0,1.821,2.726,1.963,1.963,0,0,0,1.82-1.217l4.061-9.805-4.331.153Z" transform="translate(-34.232 -107.469)" fill="#006130"/>
      <path id="Path_409" data-name="Path 409" d="M240.712,77.473a.981.981,0,0,1-.981-.981V63.406a.981.981,0,0,1,.981-.981,7.131,7.131,0,0,1,7.124,7.124v.8a7.131,7.131,0,0,1-7.124,7.123m.981-1.921a5.369,5.369,0,0,0,4.181-5.2v-.8a5.144,5.144,0,0,0-4.181-5.069Z" transform="translate(-189.442 -49.33)" fill="#006130"/>
    </g>
  </g>
</svg>
