<svg id="Component_4_1" data-name="Component 4 – 1" xmlns="http://www.w3.org/2000/svg" xmlns:xlink="http://www.w3.org/1999/xlink" width="55.476" height="41.154" viewBox="0 0 55.476 41.154">
  <defs>
    <clipPath id="clip-path">
      <rect id="Rectangle_884" data-name="Rectangle 884" width="55.476" height="41.154" fill="#006130"/>
    </clipPath>
  </defs>
  <g id="Group_199" data-name="Group 199" clip-path="url(#clip-path)">
    <path id="Path_406" data-name="Path 406" d="M9.377,69.991a9.378,9.378,0,0,1,0-18.755h14a.932.932,0,0,1,.932.931V69.059a.932.932,0,0,1-.932.932Zm0-16.892a7.514,7.514,0,0,0,0,15.028H22.549l-.107-15.135Z" transform="translate(0 -41.025)" fill="#006130"/>
    <path id="Path_407" data-name="Path 407" d="M138.878,39.176a.939.939,0,0,1-.585-.206l-2.8-2.261a35.088,35.088,0,0,0-21.945-7.743.932.932,0,0,1-.931-.932V11.142a.932.932,0,0,1,.931-.931,35.087,35.087,0,0,0,21.945-7.744l2.8-2.261A.938.938,0,0,1,138.878,0a.92.92,0,0,1,.4.092.935.935,0,0,1,.531.84V38.244a.936.936,0,0,1-.531.84.907.907,0,0,1-.4.092m-2.22-35.257a37.034,37.034,0,0,1-22.287,8.146l.1,15.154a36.2,36.2,0,0,1,22.182,8.039l1.462,1.178L137.947,2.88Z" transform="translate(-90.17)" fill="#006130"/>
    <path id="Path_408" data-name="Path 408" d="M47.057,150.048a3.738,3.738,0,0,1-3.454-5.167l3.441-8.31a.93.93,0,0,1,.862-.574h6.072a.932.932,0,0,1,.862,1.288l-4.33,10.456a3.727,3.727,0,0,1-3.454,2.307m-1.73-4.453a1.873,1.873,0,0,0,1.73,2.59,1.865,1.865,0,0,0,1.729-1.156l3.858-9.315-4.114.145Z" transform="translate(-34.686 -108.894)" fill="#006130"/>
    <path id="Path_409" data-name="Path 409" d="M240.663,76.721a.932.932,0,0,1-.932-.932V63.357a.932.932,0,0,1,.932-.932,6.775,6.775,0,0,1,6.768,6.768v.761a6.774,6.774,0,0,1-6.768,6.767M241.6,74.9a5.1,5.1,0,0,0,3.972-4.943v-.761a4.887,4.887,0,0,0-3.972-4.815Z" transform="translate(-191.955 -49.984)" fill="#006130"/>
  </g>
</svg>
