<svg id="Group_302" data-name="Group 302" xmlns="http://www.w3.org/2000/svg" xmlns:xlink="http://www.w3.org/1999/xlink" width="44.852" height="38.568" viewBox="0 0 44.852 38.568">
  <defs>
    <clipPath id="clip-path">
      <rect id="Rectangle_530" data-name="Rectangle 530" width="44.852" height="38.568" fill="#006130"/>
    </clipPath>
  </defs>
  <g id="Group_85" data-name="Group 85" clip-path="url(#clip-path)">
    <path id="Path_237" data-name="Path 237" d="M1.916,99.374A1.918,1.918,0,0,1,0,97.457V73.193a.751.751,0,0,1,.751-.751H44.1a.751.751,0,0,1,.75.751V97.457a1.918,1.918,0,0,1-1.916,1.917ZM1.5,97.457a.415.415,0,0,0,.414.415h41.02a.415.415,0,0,0,.414-.415v-23.6L1.5,73.944Z" transform="translate(0 -60.806)" fill="#006130"/>
    <path id="Path_238" data-name="Path 238" d="M.751,34.476A.751.751,0,0,1,0,33.725V27.337a1.918,1.918,0,0,1,1.916-1.916h5.2a.751.751,0,0,1,.75.751V27.3a1.6,1.6,0,0,0,3.19,0V26.172a.751.751,0,0,1,.751-.751H33.047a.751.751,0,0,1,.751.751V27.3a1.595,1.595,0,0,0,3.189,0V26.172a.751.751,0,0,1,.751-.751h5.2a1.918,1.918,0,0,1,1.916,1.916v6.388a.751.751,0,0,1-.751.751Zm1.165-7.553a.414.414,0,0,0-.414.414V33.06l41.934-.086-.086-5.637a.414.414,0,0,0-.414-.414H38.4l.086.373a3.1,3.1,0,1,1-6.194,0v-.459l-19.825.086.086.373a3.1,3.1,0,1,1-6.194,0v-.459Z" transform="translate(0 -21.338)" fill="#006130"/>
    <path id="Path_239" data-name="Path 239" d="M42.71,9.054a3.1,3.1,0,0,1-3.1-3.1V3.1a3.1,3.1,0,0,1,6.194,0V5.957a3.1,3.1,0,0,1-3.1,3.1m0-7.553a1.6,1.6,0,0,0-1.6,1.595V5.957a1.6,1.6,0,0,0,3.19,0V3.1A1.6,1.6,0,0,0,42.71,1.5" transform="translate(-33.25 0.001)" fill="#006130"/>
    <path id="Path_240" data-name="Path 240" d="M204.16,9.054a3.1,3.1,0,0,1-3.1-3.1V3.1a3.1,3.1,0,0,1,6.194,0V5.957a3.1,3.1,0,0,1-3.1,3.1m0-7.553A1.6,1.6,0,0,0,202.565,3.1V5.957a1.595,1.595,0,1,0,3.189,0V3.1A1.6,1.6,0,0,0,204.16,1.5" transform="translate(-168.768 0.001)" fill="#006130"/>
    <path id="Path_241" data-name="Path 241" d="M24.624,101.416a.752.752,0,0,1-.751-.751V95.733a.752.752,0,0,1,.751-.751h5.613a.751.751,0,0,1,.75.751v4.931a.751.751,0,0,1-.75.751ZM25.375,100l4.2-.086L29.486,96.4l-4.111.084Z" transform="translate(-20.038 -79.726)" fill="#006130"/>
    <path id="Path_242" data-name="Path 242" d="M86.382,101.416a.752.752,0,0,1-.751-.751V95.733a.752.752,0,0,1,.751-.751h5.612a.752.752,0,0,1,.751.751v4.931a.752.752,0,0,1-.751.751ZM87.133,100l4.2-.086L91.244,96.4l-4.111.084Z" transform="translate(-71.877 -79.726)" fill="#006130"/>
    <path id="Path_243" data-name="Path 243" d="M148.141,101.416a.751.751,0,0,1-.751-.751V95.733a.751.751,0,0,1,.751-.751h5.613a.752.752,0,0,1,.751.751v4.931a.752.752,0,0,1-.751.751Zm.751-1.416,4.2-.086L153,96.4l-4.111.084Z" transform="translate(-123.716 -79.726)" fill="#006130"/>
    <path id="Path_244" data-name="Path 244" d="M209.9,101.416a.751.751,0,0,1-.751-.751V95.733a.751.751,0,0,1,.751-.751h5.613a.752.752,0,0,1,.751.751v4.931a.752.752,0,0,1-.751.751ZM210.65,100l4.2-.086-.086-3.516-4.111.084Z" transform="translate(-175.554 -79.726)" fill="#006130"/>
    <path id="Path_245" data-name="Path 245" d="M24.624,158.281a.752.752,0,0,1-.751-.751V152.6a.752.752,0,0,1,.751-.751h5.613a.751.751,0,0,1,.75.751v4.931a.751.751,0,0,1-.75.751Zm.751-1.416,4.2-.086-.086-3.516-4.111.084Z" transform="translate(-20.038 -127.457)" fill="#006130"/>
    <path id="Path_246" data-name="Path 246" d="M86.382,158.281a.752.752,0,0,1-.751-.751V152.6a.752.752,0,0,1,.751-.751h5.612a.752.752,0,0,1,.751.751v4.931a.752.752,0,0,1-.751.751Zm.751-1.416,4.2-.086-.086-3.516-4.111.084Z" transform="translate(-71.877 -127.457)" fill="#006130"/>
    <path id="Path_247" data-name="Path 247" d="M148.141,158.281a.751.751,0,0,1-.751-.751V152.6a.751.751,0,0,1,.751-.751h5.613a.752.752,0,0,1,.751.751v4.931a.752.752,0,0,1-.751.751Zm.751-1.416,4.2-.086L153,153.263l-4.111.084Z" transform="translate(-123.716 -127.457)" fill="#006130"/>
    <path id="Path_248" data-name="Path 248" d="M209.9,158.281a.751.751,0,0,1-.751-.751V152.6a.751.751,0,0,1,.751-.751h5.613a.752.752,0,0,1,.751.751v4.931a.752.752,0,0,1-.751.751Zm.751-1.416,4.2-.086-.086-3.516-4.111.084Z" transform="translate(-175.554 -127.457)" fill="#006130"/>
  </g>
</svg>
