<svg id="Component_4_1" data-name="Component 4 – 1" xmlns="http://www.w3.org/2000/svg" xmlns:xlink="http://www.w3.org/1999/xlink" width="47.794" height="46.237" viewBox="0 0 47.794 46.237">
  <defs>
    <clipPath id="clip-path">
      <rect id="Rectangle_535" data-name="Rectangle 535" width="47.794" height="46.237" fill="#006130"/>
    </clipPath>
  </defs>
  <g id="Group_95" data-name="Group 95" clip-path="url(#clip-path)">
    <path id="Path_281" data-name="Path 281" d="M10.521,119.587a.674.674,0,0,1-.674-.674V97.826a.675.675,0,0,1,.674-.674h8.255a.674.674,0,0,1,0,1.349H11.2v20.411a.674.674,0,0,1-.674.674" transform="translate(-7.949 -78.431)" fill="#006130"/>
    <path id="Path_282" data-name="Path 282" d="M198.153,119.587a.674.674,0,0,1-.674-.674V98.5H189.9a.674.674,0,1,1,0-1.349h8.253a.675.675,0,0,1,.674.674v21.086a.674.674,0,0,1-.674.674" transform="translate(-152.761 -78.431)" fill="#006130"/>
    <path id="Path_283" data-name="Path 283" d="M91.242,64.173a.674.674,0,0,1-.674-.674V41.862l-8.854-9.444-8.852,9.444V63.5a.674.674,0,1,1-1.349,0V41.6a.675.675,0,0,1,.182-.461l9.527-10.163a.675.675,0,0,1,.984,0l9.529,10.163a.675.675,0,0,1,.182.461V63.5a.674.674,0,0,1-.674.674" transform="translate(-57.732 -24.831)" fill="#006130"/>
    <path id="Path_284" data-name="Path 284" d="M107.678,171.639a.674.674,0,0,1-.674-.674v-7.987H99.882v7.987a.674.674,0,0,1-1.349,0V162.3a.674.674,0,0,1,.674-.674h8.47a.674.674,0,0,1,.674.674v8.661a.674.674,0,0,1-.674.674" transform="translate(-79.546 -130.483)" fill="#006130"/>
    <path id="Path_285" data-name="Path 285" d="M27.917,120.756a.674.674,0,0,1-.674-.674v-2.563a.674.674,0,1,1,1.349,0v2.563a.674.674,0,0,1-.674.674" transform="translate(-21.993 -94.328)" fill="#006130"/>
    <path id="Path_286" data-name="Path 286" d="M52.474,120.756a.674.674,0,0,1-.674-.674v-2.563a.674.674,0,0,1,1.349,0v2.563a.674.674,0,0,1-.674.674" transform="translate(-41.818 -94.328)" fill="#006130"/>
    <path id="Path_287" data-name="Path 287" d="M27.917,152.127a.674.674,0,0,1-.674-.674v-2.563a.674.674,0,1,1,1.349,0v2.563a.674.674,0,0,1-.674.674" transform="translate(-21.993 -119.654)" fill="#006130"/>
    <path id="Path_288" data-name="Path 288" d="M52.474,152.127a.674.674,0,0,1-.674-.674v-2.563a.674.674,0,0,1,1.349,0v2.563a.674.674,0,0,1-.674.674" transform="translate(-41.818 -119.654)" fill="#006130"/>
    <path id="Path_289" data-name="Path 289" d="M27.917,183.5a.674.674,0,0,1-.674-.674V180.26a.674.674,0,0,1,1.349,0v2.563a.674.674,0,0,1-.674.674" transform="translate(-21.993 -144.98)" fill="#006130"/>
    <path id="Path_290" data-name="Path 290" d="M52.474,183.5a.674.674,0,0,1-.674-.674V180.26a.674.674,0,0,1,1.349,0v2.563a.674.674,0,0,1-.674.674" transform="translate(-41.818 -144.98)" fill="#006130"/>
    <path id="Path_291" data-name="Path 291" d="M190.775,120.756a.674.674,0,0,1-.674-.674v-2.563a.674.674,0,0,1,1.349,0v2.563a.674.674,0,0,1-.674.674" transform="translate(-153.468 -94.328)" fill="#006130"/>
    <path id="Path_292" data-name="Path 292" d="M215.331,120.756a.674.674,0,0,1-.674-.674v-2.563a.674.674,0,1,1,1.349,0v2.563a.674.674,0,0,1-.674.674" transform="translate(-173.292 -94.328)" fill="#006130"/>
    <path id="Path_293" data-name="Path 293" d="M190.775,152.127a.674.674,0,0,1-.674-.674v-2.563a.674.674,0,0,1,1.349,0v2.563a.674.674,0,0,1-.674.674" transform="translate(-153.468 -119.654)" fill="#006130"/>
    <path id="Path_294" data-name="Path 294" d="M215.331,152.127a.674.674,0,0,1-.674-.674v-2.563a.674.674,0,1,1,1.349,0v2.563a.674.674,0,0,1-.674.674" transform="translate(-173.292 -119.654)" fill="#006130"/>
    <path id="Path_295" data-name="Path 295" d="M190.775,183.5a.674.674,0,0,1-.674-.674V180.26a.674.674,0,0,1,1.349,0v2.563a.674.674,0,0,1-.674.674" transform="translate(-153.468 -144.98)" fill="#006130"/>
    <path id="Path_296" data-name="Path 296" d="M215.331,183.5a.674.674,0,0,1-.674-.674V180.26a.674.674,0,0,1,1.349,0v2.563a.674.674,0,0,1-.674.674" transform="translate(-173.292 -144.98)" fill="#006130"/>
    <path id="Path_297" data-name="Path 297" d="M196.778,83.97H186.435a.674.674,0,1,1,0-1.349h10.342a.674.674,0,0,1,0,1.349" transform="translate(-149.965 -66.7)" fill="#006130"/>
    <path id="Path_298" data-name="Path 298" d="M13.486,83.97H3.143a.674.674,0,1,1,0-1.349H13.486a.674.674,0,1,1,0,1.349" transform="translate(-1.993 -66.7)" fill="#006130"/>
    <path id="Path_299" data-name="Path 299" d="M121.624,7.275a.674.674,0,0,1-.674-.674V.673a.674.674,0,1,1,1.349,0V6.6a.674.674,0,0,1-.674.674" transform="translate(-97.643 0.001)" fill="#006130"/>
    <path id="Path_300" data-name="Path 300" d="M129.242,7.47h-7.115a.674.674,0,0,1,0-1.349h5.921l-.472-.783a.675.675,0,0,1,0-.7l.472-.783h-4.392a.674.674,0,0,1,0-1.349h5.586a.674.674,0,0,1,.578,1.022l-.879,1.458.879,1.458a.674.674,0,0,1-.578,1.023" transform="translate(-98.048 -2.026)" fill="#006130"/>
    <path id="Path_301" data-name="Path 301" d="M47.119,220.6H.674A.674.674,0,0,1,0,219.928v-3.267a.674.674,0,0,1,.674-.674H47.119a.674.674,0,0,1,.674.674v3.267a.674.674,0,0,1-.674.674M1.349,219.254h45.1v-1.918H1.349Z" transform="translate(0 -174.366)" fill="#006130"/>
    <path id="Path_302" data-name="Path 302" d="M95.155,129.2H91.1a.674.674,0,0,1-.674-.674v-4.355a.674.674,0,0,1,1.349,0v3.681h3.38a.674.674,0,0,1,0,1.349" transform="translate(-73.001 -99.697)" fill="#006130"/>
    <path id="Path_303" data-name="Path 303" d="M135.285,129.2H131.23a.674.674,0,0,1-.674-.674v-4.355a.674.674,0,0,1,1.349,0v3.681h3.38a.674.674,0,0,1,0,1.349" transform="translate(-105.398 -99.697)" fill="#006130"/>
    <path id="Path_304" data-name="Path 304" d="M95.155,88.6H91.1a.674.674,0,1,1,0-1.349h3.38V83.566a.674.674,0,0,1,1.349,0v4.355a.674.674,0,0,1-.674.674" transform="translate(-73.001 -66.919)" fill="#006130"/>
    <path id="Path_305" data-name="Path 305" d="M135.285,88.6H131.23a.674.674,0,1,1,0-1.349h3.38V83.566a.674.674,0,0,1,1.349,0v4.355a.674.674,0,0,1-.674.674" transform="translate(-105.398 -66.919)" fill="#006130"/>
    <path id="Path_306" data-name="Path 306" d="M121.628,173.368a.674.674,0,0,1-.674-.674V162.3a.674.674,0,0,1,1.349,0v10.391a.674.674,0,0,1-.674.674" transform="translate(-97.646 -130.482)" fill="#006130"/>
  </g>
</svg>
