<svg id="Group_305" data-name="Group 305" xmlns="http://www.w3.org/2000/svg" xmlns:xlink="http://www.w3.org/1999/xlink" width="42.949" height="36.713" viewBox="0 0 42.949 36.713">
  <defs>
    <clipPath id="clip-path">
      <rect id="Rectangle_533" data-name="Rectangle 533" width="42.949" height="36.713" fill="#006130"/>
    </clipPath>
  </defs>
  <g id="Group_91" data-name="Group 91" clip-path="url(#clip-path)">
    <path id="Path_265" data-name="Path 265" d="M34.495,36.713a2.434,2.434,0,0,1-1.73-.729l-6.833-6.833-23.463.027A2.47,2.47,0,0,1,0,26.711V2.468A2.471,2.471,0,0,1,2.468,0H40.482a2.47,2.47,0,0,1,2.467,2.468V26.711a2.47,2.47,0,0,1-2.467,2.467h-3.6l.093,5.061a2.431,2.431,0,0,1-1.523,2.281,2.5,2.5,0,0,1-.959.193M2.468,1.637a.833.833,0,0,0-.831.831V26.711a.833.833,0,0,0,.831.831H26.3a.816.816,0,0,1,.579.238l7.045,7.047a.788.788,0,0,0,.57.245.911.911,0,0,0,.335-.066.816.816,0,0,0,.513-.767V28.36a.819.819,0,0,1,.818-.818h4.323a.832.832,0,0,0,.83-.831V2.468a.832.832,0,0,0-.83-.831Z" fill="#006130"/>
    <path id="Path_266" data-name="Path 266" d="M50.313,48.479a.819.819,0,1,1,0-1.637h16.48a.819.819,0,1,1,0,1.637Z" transform="translate(-40.952 -38.757)" fill="#006130"/>
    <path id="Path_267" data-name="Path 267" d="M50.313,82.139a.819.819,0,1,1,0-1.637H74.54a.819.819,0,0,1,0,1.637Z" transform="translate(-40.952 -66.608)" fill="#006130"/>
    <path id="Path_268" data-name="Path 268" d="M50.313,115.8a.819.819,0,1,1,0-1.637H74.54a.819.819,0,0,1,0,1.637Z" transform="translate(-40.952 -94.458)" fill="#006130"/>
  </g>
</svg>
