<svg id="Group_304" data-name="Group 304" xmlns="http://www.w3.org/2000/svg" xmlns:xlink="http://www.w3.org/1999/xlink" width="47.178" height="50.986" viewBox="0 0 47.178 50.986">
  <defs>
    <clipPath id="clip-path">
      <rect id="Rectangle_532" data-name="Rectangle 532" width="47.178" height="50.986" fill="#006130"/>
    </clipPath>
  </defs>
  <g id="Group_89" data-name="Group 89" clip-path="url(#clip-path)">
    <path id="Path_256" data-name="Path 256" d="M68.974,98a5.365,5.365,0,0,1-5.381-5.193l-.023-.618A27.7,27.7,0,0,0,58.863,77.8a12.264,12.264,0,0,1-1.995-8.262A12.418,12.418,0,0,1,67.763,58.647a13.058,13.058,0,0,1,1.431-.08,12.169,12.169,0,0,1,8.239,3.157,12.378,12.378,0,0,1,1.909,16.3,27.535,27.535,0,0,0-4.985,14.786A5.366,5.366,0,0,1,68.974,98m.215-37.559a11.019,11.019,0,0,0-1.22.068,10.53,10.53,0,0,0-9.239,9.239,10.408,10.408,0,0,0,1.69,7.016A29.555,29.555,0,0,1,65.44,92.12l.022.618a3.514,3.514,0,0,0,7.023,0,29.381,29.381,0,0,1,5.321-15.791,10.424,10.424,0,0,0,1.881-6,10.533,10.533,0,0,0-3.5-7.835,10.343,10.343,0,0,0-6.995-2.679" transform="translate(-45.585 -47.013)" fill="#006130"/>
    <path id="Path_257" data-name="Path 257" d="M95.749,201.18a11.129,11.129,0,0,1-5.167-1.208.936.936,0,0,1,.928-1.626,9.146,9.146,0,0,0,4.225.964,10.587,10.587,0,0,0,4.446-1,.936.936,0,1,1,.783,1.7,12.416,12.416,0,0,1-5.215,1.17" transform="translate(-72.334 -159.117)" fill="#006130"/>
    <path id="Path_258" data-name="Path 258" d="M115.763,8.5a.936.936,0,0,1-.935-.936V.936a.935.935,0,1,1,1.871,0V7.564a.936.936,0,0,1-.935.936" transform="translate(-92.174 -0.001)" fill="#006130"/>
    <path id="Path_259" data-name="Path 259" d="M45.075,34.224a.933.933,0,0,1-.718-.334L40.1,28.813a.936.936,0,1,1,1.433-1.2l4.26,5.078a.935.935,0,0,1-.717,1.537" transform="translate(-32.01 -21.894)" fill="#006130"/>
    <path id="Path_260" data-name="Path 260" d="M7.3,99.352.773,98.2a.937.937,0,0,1,.162-1.859l6.691,1.165a.936.936,0,0,1-.162,1.858Z" transform="translate(0 -77.335)" fill="#006130"/>
    <path id="Path_261" data-name="Path 261" d="M14.788,163.276a.936.936,0,0,1-.469-1.747l5.74-3.314a.936.936,0,1,1,.935,1.622l-5.739,3.314a.938.938,0,0,1-.467.125" transform="translate(-11.119 -126.901)" fill="#006130"/>
    <path id="Path_262" data-name="Path 262" d="M193.375,163.276a.939.939,0,0,1-.467-.125l-5.739-3.314a.936.936,0,1,1,.935-1.622l5.74,3.314a.936.936,0,0,1-.469,1.747" transform="translate(-149.867 -126.901)" fill="#006130"/>
    <path id="Path_263" data-name="Path 263" d="M197.493,99.425a.936.936,0,0,1-.162-1.858l6.528-1.151h.039a.962.962,0,0,1,1.045.759.937.937,0,0,1-.759,1.086l-6.528,1.151Z" transform="translate(-157.78 -77.395)" fill="#006130"/>
    <path id="Path_264" data-name="Path 264" d="M169.113,34.224a.935.935,0,0,1-.716-1.537l4.26-5.078a.936.936,0,1,1,1.432,1.2l-4.26,5.077a.929.929,0,0,1-.717.334" transform="translate(-134.999 -21.894)" fill="#006130"/>
  </g>
</svg>
