<svg xmlns="http://www.w3.org/2000/svg" width="15.742" height="15.742" viewBox="0 0 15.742 15.742">
  <g id="Group_10" data-name="Group 10" transform="translate(-144 -360)">
    <g id="Group_9" data-name="Group 9" transform="translate(144 360)">
      <path id="Path_79" data-name="Path 79" d="M144,370.464v-5.185a1.044,1.044,0,0,0,.025-.147,8.406,8.406,0,0,1,.195-1.81,4.017,4.017,0,0,1,2.392-2.868,6.015,6.015,0,0,1,2.176-.417c.164-.007.327-.023.49-.036h5.185a1.038,1.038,0,0,0,.147.025,8.406,8.406,0,0,1,1.81.195,4.017,4.017,0,0,1,2.868,2.392,6.02,6.02,0,0,1,.417,2.176c.007.164.023.327.036.49v5.185a1.044,1.044,0,0,0-.025.147,8.4,8.4,0,0,1-.195,1.81,4.017,4.017,0,0,1-2.392,2.868,6.018,6.018,0,0,1-2.176.417c-.164.007-.327.023-.491.035h-5.185a1.046,1.046,0,0,0-.147-.025,8.4,8.4,0,0,1-1.81-.195,4.017,4.017,0,0,1-2.868-2.392,6.015,6.015,0,0,1-.417-2.176C144.029,370.79,144.012,370.627,144,370.464Zm1.407-2.594h.024c0,.656-.013,1.312,0,1.967.016.618.039,1.238.1,1.852a2.8,2.8,0,0,0,.673,1.6,2.882,2.882,0,0,0,2.088.948c.929.057,1.86.07,2.791.082s1.832.007,2.748-.011c.618-.012,1.238-.038,1.852-.1a2.8,2.8,0,0,0,1.6-.674,2.882,2.882,0,0,0,.948-2.088c.057-.929.07-1.86.082-2.791q.017-1.373-.011-2.747c-.012-.618-.038-1.238-.1-1.852a2.8,2.8,0,0,0-.673-1.6,2.882,2.882,0,0,0-2.088-.948c-.929-.057-1.86-.07-2.791-.082s-1.832-.012-2.747.012a15.843,15.843,0,0,0-2.036.135,2.565,2.565,0,0,0-2.227,1.977,5.185,5.185,0,0,0-.167,1.154C145.435,365.758,145.428,366.814,145.407,367.87Z" transform="translate(-144 -360)" fill="#006130"/>
      <path id="Path_80" data-name="Path 80" d="M270.546,482.494a4.045,4.045,0,1,1-4.052,4.03A4.042,4.042,0,0,1,270.546,482.494Zm0,1.427a2.619,2.619,0,1,0,2.614,2.627A2.624,2.624,0,0,0,270.543,483.92Z" transform="translate(-262.668 -478.668)" fill="#006130"/>
      <path id="Path_81" data-name="Path 81" d="M501.942,448.116a.949.949,0,1,1-.949-.952A.95.95,0,0,1,501.942,448.116Z" transform="translate(-488.923 -444.441)" fill="#006130"/>
    </g>
  </g>
</svg>
