<svg id="Group_2" data-name="Group 2" xmlns="http://www.w3.org/2000/svg" xmlns:xlink="http://www.w3.org/1999/xlink" width="344.753" height="64.86" viewBox="0 0 344.753 64.86">
  <defs>
    <clipPath id="clip-path">
      <rect id="Rectangle_1" data-name="Rectangle 1" width="344.753" height="64.86" fill="none"/>
    </clipPath>
  </defs>
  <g id="Group_1" data-name="Group 1" clip-path="url(#clip-path)">
    <path id="Path_1" data-name="Path 1" d="M146.207,28.464a7.56,7.56,0,0,1-5.73,2.42,7.958,7.958,0,0,1-5.517-2.207l-2.242,1.744-.6-.285a6.607,6.607,0,0,0,.534-1.53,19.958,19.958,0,0,0,.178-2.812V11.2a2.2,2.2,0,0,0-.285-1.388.941.941,0,0,0-.782-.249h-.783V8.5a15.67,15.67,0,0,0,2.6-.711,8.441,8.441,0,0,0,2.42-1.495h.889a23.16,23.16,0,0,0-.249,2.776v7.616a7.708,7.708,0,0,1,4.7-1.495,6.879,6.879,0,0,1,5.125,2.135,7.085,7.085,0,0,1,2.1,5.232,8.106,8.106,0,0,1-2.349,5.908m-3.239-9.787a4.211,4.211,0,0,0-3.452-1.886,2.588,2.588,0,0,0-2.883,2.6v7.225a2.6,2.6,0,0,0,.926,2.028,3.411,3.411,0,0,0,2.349.783,3.681,3.681,0,0,0,3.167-1.672,7.252,7.252,0,0,0,1.246-4.377,7.884,7.884,0,0,0-1.352-4.7m17.261.819c-.961,0-1.566-.57-1.744-1.673-.071-.462-.214-.676-.427-.676a1.741,1.741,0,0,0-1.067.569,4.806,4.806,0,0,0-1.566,3.772v5.089a4.288,4.288,0,0,0,.356,2.242,2.012,2.012,0,0,0,1.53.427h.107v1.139h-7.83V29.247h.142a1.969,1.969,0,0,0,1.495-.427,3.854,3.854,0,0,0,.392-2.242V20.171a3.006,3.006,0,0,0-.142-1.209c-.143-.356-.5-.463-1.032-.463l-.747.036V17.466a12.6,12.6,0,0,0,2.634-.569,8.593,8.593,0,0,0,2.42-1.459h.676v2.277a10.811,10.811,0,0,1,1.957-2.029,3.35,3.35,0,0,1,1.887-.534,2.945,2.945,0,0,1,1.957.712,2.39,2.39,0,0,1,.818,1.779,1.767,1.767,0,0,1-1.815,1.851M178.2,28.641a4.144,4.144,0,0,1-3.524,1.957,2.6,2.6,0,0,1-2.562-1.851l-.391.284a7.7,7.7,0,0,1-4.342,1.816,4.692,4.692,0,0,1-3.31-1.21,3.827,3.827,0,0,1-1.388-2.954,3.4,3.4,0,0,1,1.886-3.1,48.75,48.75,0,0,1,7.366-2.527c0-2.135-.213-3.452-.641-3.986a1.89,1.89,0,0,0-1.566-.641,3.913,3.913,0,0,0-2.1.5,1.377,1.377,0,0,0-.854,1.139v.071l.071.925v.214A1.94,1.94,0,0,1,165,21.417a1.564,1.564,0,0,1-1.211-.57,2.115,2.115,0,0,1-.5-1.352,3.509,3.509,0,0,1,2.064-3.061,9.9,9.9,0,0,1,5.16-1.246,7.05,7.05,0,0,1,4.235,1.1,2.381,2.381,0,0,1,1,1.566,11.7,11.7,0,0,1,.106,1.957v5.872c0,.926.036,1.459.036,1.637.106.748.356,1.139.782,1.139a1.771,1.771,0,0,0,.819-.463ZM171.937,22.2a17.393,17.393,0,0,0-3.807,1.352,2.87,2.87,0,0,0-1.6,2.6,2.97,2.97,0,0,0,.712,1.993,2.5,2.5,0,0,0,1.851.747c1.744,0,2.847-1.352,2.847-3.488Zm25.232,8.186h-7.687V29.247h.143a1.887,1.887,0,0,0,1.424-.463,4.118,4.118,0,0,0,.391-2.207v-5.2a4.787,4.787,0,0,0-.712-2.954,2.961,2.961,0,0,0-2.385-1.067,3.466,3.466,0,0,0-2.49,1,3.023,3.023,0,0,0-1.068,2.314v5.907a4.28,4.28,0,0,0,.356,2.242,1.927,1.927,0,0,0,1.459.427h.142v1.139h-7.723V29.247h.143a1.784,1.784,0,0,0,1.424-.427,3.86,3.86,0,0,0,.391-2.242V11.2c0-.782-.107-1.281-.32-1.459a1.309,1.309,0,0,0-.712-.178h-.819V8.5a13.606,13.606,0,0,0,2.634-.711,8.8,8.8,0,0,0,2.385-1.495h.925a17.86,17.86,0,0,0-.285,2.776v8.541a7.207,7.207,0,0,1,5.41-2.384,5.4,5.4,0,0,1,3.523,1.174,3.839,3.839,0,0,1,1.352,2.278,15.524,15.524,0,0,1,.142,2.7v5.2a3.8,3.8,0,0,0,.391,2.207,1.831,1.831,0,0,0,1.424.463h.143Zm16.547-1.744a4.144,4.144,0,0,1-3.524,1.957,2.6,2.6,0,0,1-2.562-1.851l-.391.284a7.7,7.7,0,0,1-4.342,1.816,4.691,4.691,0,0,1-3.309-1.21,3.827,3.827,0,0,1-1.389-2.954,3.4,3.4,0,0,1,1.887-3.1,48.747,48.747,0,0,1,7.366-2.527c0-2.135-.213-3.452-.641-3.986a1.89,1.89,0,0,0-1.566-.641,3.911,3.911,0,0,0-2.1.5,1.377,1.377,0,0,0-.854,1.139v.071l.071.925v.214a1.94,1.94,0,0,1-1.851,2.135,1.563,1.563,0,0,1-1.21-.57,2.112,2.112,0,0,1-.5-1.352,3.509,3.509,0,0,1,2.064-3.061,9.893,9.893,0,0,1,5.16-1.246,7.049,7.049,0,0,1,4.235,1.1,2.382,2.382,0,0,1,1,1.566,11.77,11.77,0,0,1,.106,1.957v5.872c0,.926.036,1.459.036,1.637.106.748.356,1.139.782,1.139A1.769,1.769,0,0,0,213,28ZM207.452,22.2a17.413,17.413,0,0,0-3.808,1.352,2.87,2.87,0,0,0-1.6,2.6,2.972,2.972,0,0,0,.711,1.993,2.5,2.5,0,0,0,1.851.747c1.744,0,2.847-1.352,2.847-3.488Zm34.2,8.186h-7.723V29.247h.143a1.8,1.8,0,0,0,1.388-.463,3.87,3.87,0,0,0,.392-2.207V21.132c0-2.313-.89-3.488-2.669-3.488a3.162,3.162,0,0,0-3.274,3.488v5.445a4.283,4.283,0,0,0,.356,2.242,1.8,1.8,0,0,0,1.388.427h.142v1.139h-7.58V29.247h.142a1.794,1.794,0,0,0,1.388-.427,4.282,4.282,0,0,0,.356-2.242V21.132c0-2.313-.89-3.488-2.634-3.488a3.164,3.164,0,0,0-2.349.89,2.825,2.825,0,0,0-.926,2.135v5.907a4.289,4.289,0,0,0,.356,2.242,1.8,1.8,0,0,0,1.388.427h.142v1.139h-7.723V29.247h.142A1.969,1.969,0,0,0,216,28.819a3.854,3.854,0,0,0,.392-2.242V20.171a3.108,3.108,0,0,0-.143-1.209c-.142-.356-.5-.463-1.032-.463l-.747.036V17.466A12.609,12.609,0,0,0,217.1,16.9a8.591,8.591,0,0,0,2.42-1.459h.676v2.42q2.455-2.669,5.018-2.669a5.19,5.19,0,0,1,1.851.32,4.682,4.682,0,0,1,2.527,2.67,14.176,14.176,0,0,1,1.423-1.459,5.991,5.991,0,0,1,3.915-1.531,4.836,4.836,0,0,1,3.239,1.1,3.452,3.452,0,0,1,.961,1.211,8.7,8.7,0,0,1,.5,3.63v5.445a3.8,3.8,0,0,0,.391,2.207,1.961,1.961,0,0,0,1.495.463h.143Zm26.326-1.174a9.351,9.351,0,0,1-3.1,1.032,24.649,24.649,0,0,1-3.274.142H249.76V29.1h.143c2.029,0,2.634-.5,2.634-2.029V10.1a1.906,1.906,0,0,0-.569-1.6,3.563,3.563,0,0,0-2.064-.426h-.143V6.79h11.78a12.4,12.4,0,0,1,5.16.854,4.862,4.862,0,0,1,3.168,4.555,4.414,4.414,0,0,1-1.709,3.559,10.955,10.955,0,0,1-3.417,1.6l-.427.142a21.123,21.123,0,0,1,2.6.641c2.918,1.032,4.377,2.847,4.377,5.552a5.921,5.921,0,0,1-3.31,5.517m-4.2-20a5.868,5.868,0,0,0-3.915-1.246,6,6,0,0,0-2.634.391c-.356.142-.534.748-.534,1.744v5.481c0,.6.036.961.178,1.1.177.214,1,.321,2.42.321a7.218,7.218,0,0,0,4.342-1.175,3.889,3.889,0,0,0,1.6-3.274,4.16,4.16,0,0,0-1.459-3.345m.961,10.711a5.393,5.393,0,0,0-2.491-1.281,14.343,14.343,0,0,0-2.882-.214,5.219,5.219,0,0,0-2.527.32,2.88,2.88,0,0,0-.142,1.246v7.081a2.232,2.232,0,0,0,.391,1.6,4.68,4.68,0,0,0,2.6.427,7.341,7.341,0,0,0,4.876-1.531,4.964,4.964,0,0,0,1.85-3.986,4.8,4.8,0,0,0-1.672-3.666m23.774,8.719a4.144,4.144,0,0,1-3.524,1.957,2.6,2.6,0,0,1-2.562-1.851l-.391.284a7.7,7.7,0,0,1-4.342,1.816,4.691,4.691,0,0,1-3.309-1.21A3.827,3.827,0,0,1,273,26.684a3.4,3.4,0,0,1,1.887-3.1,48.747,48.747,0,0,1,7.366-2.527c0-2.135-.213-3.452-.641-3.986a1.89,1.89,0,0,0-1.566-.641,3.911,3.911,0,0,0-2.1.5,1.377,1.377,0,0,0-.854,1.139v.071l.071.925v.214a1.94,1.94,0,0,1-1.851,2.135,1.563,1.563,0,0,1-1.21-.57,2.112,2.112,0,0,1-.5-1.352,3.508,3.508,0,0,1,2.064-3.061,9.893,9.893,0,0,1,5.16-1.246,7.049,7.049,0,0,1,4.235,1.1,2.382,2.382,0,0,1,1,1.566,11.768,11.768,0,0,1,.106,1.957v5.872c0,.926.036,1.459.036,1.637.106.748.356,1.139.782,1.139A1.77,1.77,0,0,0,287.8,28ZM282.253,22.2a17.414,17.414,0,0,0-3.808,1.352,2.87,2.87,0,0,0-1.6,2.6,2.972,2.972,0,0,0,.711,1.993,2.5,2.5,0,0,0,1.851.747c1.744,0,2.847-1.352,2.847-3.488Zm14.8,8.186h-7.723V29.247h.143a1.785,1.785,0,0,0,1.424-.427,3.86,3.86,0,0,0,.391-2.242V11.2c0-.782-.107-1.281-.321-1.459a1.307,1.307,0,0,0-.711-.178h-.819V8.5a13.6,13.6,0,0,0,2.634-.711,8.8,8.8,0,0,0,2.384-1.495h.925a17.933,17.933,0,0,0-.285,2.776V26.577a4.279,4.279,0,0,0,.357,2.242,1.926,1.926,0,0,0,1.459.427h.142Zm18.221-1.424h-.107a9.364,9.364,0,0,0-4.662,1.494h-.783V29.069a6.128,6.128,0,0,1-4.413,1.779,7.081,7.081,0,0,1-5.338-2.277,7.711,7.711,0,0,1-2.207-5.552,7.821,7.821,0,0,1,2.313-5.658,7.58,7.58,0,0,1,5.552-2.314,6.305,6.305,0,0,1,1.779.249,7.356,7.356,0,0,1,2.314,1.139V11.2c0-.782-.107-1.281-.321-1.459a1.306,1.306,0,0,0-.712-.178h-.819V8.5a13.594,13.594,0,0,0,2.634-.711,9.374,9.374,0,0,0,2.385-1.495h.925a17.845,17.845,0,0,0-.284,2.776v17.4c0,.854.284,1.352.818,1.459a2.571,2.571,0,0,0,.783.071h.142Zm-5.552-9.218c0-2.1-1.032-3.132-3.061-3.132a4.161,4.161,0,0,0-3.416,1.672,6.581,6.581,0,0,0-1.317,4.2A7.077,7.077,0,0,0,303.357,27a4.407,4.407,0,0,0,3.559,1.851,3.1,3.1,0,0,0,2.1-.676,2.575,2.575,0,0,0,.712-2.064Zm29.538-2.919a2.176,2.176,0,0,0-1.566.606,4.5,4.5,0,0,0-.819,1.531l-4.235,11.566-2.847.213-2.74-7.936-2.847,7.687-2.811.179-4.128-12.029a3.406,3.406,0,0,0-.783-1.424,1.9,1.9,0,0,0-1.281-.392h-.143V15.687h7.366v1.139c-.854.072-1.281.285-1.281.677a5.016,5.016,0,0,0,.285,1.139l2.74,8.043,2.135-6.121-.641-1.851-.32-.819a2.89,2.89,0,0,0-.463-.854,1.234,1.234,0,0,0-.854-.214h-.178V15.687h6.975v1.139h-.142c-.783,0-1.175.249-1.175.712a5.377,5.377,0,0,0,.285,1.1l2.776,8.078,2.74-7.9a3.3,3.3,0,0,0,.249-1.1c0-.6-.356-.89-1.068-.89h-.249V15.687h5.018Zm8.554,13.56h-7.83V29.247h.143a1.969,1.969,0,0,0,1.494-.427,3.854,3.854,0,0,0,.392-2.242V20.171a3.107,3.107,0,0,0-.143-1.209c-.142-.356-.5-.463-1.032-.463l-.747.036V17.466a12.608,12.608,0,0,0,2.634-.569,8.591,8.591,0,0,0,2.42-1.459h.676V26.577a4.289,4.289,0,0,0,.356,2.242,2.013,2.013,0,0,0,1.531.427h.107ZM345.364,11.63a2.016,2.016,0,0,1-1.459.606,1.987,1.987,0,0,1-1.459-.569,2.079,2.079,0,0,1-.6-1.459,2.228,2.228,0,0,1,.569-1.494,1.971,1.971,0,0,1,1.459-.641,1.992,1.992,0,0,1,1.495.641,1.981,1.981,0,0,1,0,2.917m21.923,18.756H359.6V29.247h.143a1.886,1.886,0,0,0,1.424-.463,4.112,4.112,0,0,0,.391-2.207v-5.2a4.783,4.783,0,0,0-.712-2.954,2.961,2.961,0,0,0-2.384-1.067,3.467,3.467,0,0,0-2.491,1A3.022,3.022,0,0,0,354.9,20.67v5.907a4.282,4.282,0,0,0,.356,2.242,1.927,1.927,0,0,0,1.459.427h.142v1.139h-7.723V29.247h.142a1.783,1.783,0,0,0,1.424-.427,3.861,3.861,0,0,0,.391-2.242V20.171a3.108,3.108,0,0,0-.142-1.209c-.177-.356-.5-.463-1.032-.463l-.747.036V17.466a12.471,12.471,0,0,0,2.669-.569,7.99,7.99,0,0,0,2.384-1.459h.676v2.171a7.207,7.207,0,0,1,5.41-2.384,5.4,5.4,0,0,1,3.523,1.174,3.84,3.84,0,0,1,1.353,2.278,15.586,15.586,0,0,1,.143,2.7v5.2a3.79,3.79,0,0,0,.391,2.207,1.83,1.83,0,0,0,1.424.463h.142ZM144.142,65.116a10.87,10.87,0,0,1-6.157,1.709,9.391,9.391,0,0,1-4.84-1.068,3.186,3.186,0,0,1-1.815-2.847,2.853,2.853,0,0,1,1.886-2.6,2.815,2.815,0,0,1-1.246-2.349,3.038,3.038,0,0,1,.214-1.1,4.953,4.953,0,0,1,1.672-1.992,5.815,5.815,0,0,1-1.922-4.164,5.206,5.206,0,0,1,1.851-4.057,6.782,6.782,0,0,1,4.662-1.637,9.886,9.886,0,0,1,2.7.427c1.1-1.708,2.313-2.562,3.594-2.562a1.854,1.854,0,0,1,1.993,1.851,1.459,1.459,0,0,1-1.495,1.494,1.584,1.584,0,0,1-.925-.285l-.462-.356a1.164,1.164,0,0,0-.747-.391,1.844,1.844,0,0,0-1,.641,5.836,5.836,0,0,1,2.74,4.7A5.4,5.4,0,0,1,143,54.759a6.829,6.829,0,0,1-4.662,1.637,10.429,10.429,0,0,1-3.524-.782,1.947,1.947,0,0,0-1.245,1.744c0,.747.5,1.1,1.53,1.1A20.955,20.955,0,0,0,138.448,58a26.261,26.261,0,0,1,3.7-.534,5.1,5.1,0,0,1,3.31,1,3.044,3.044,0,0,1,1.281,2.562,4.892,4.892,0,0,1-2.6,4.093m-2.384-3.879c-.107,0-.427.035-1.068.107l-2.206.249a14.446,14.446,0,0,1-1.495.107,6.667,6.667,0,0,1-2.1-.356,2.274,2.274,0,0,0-.89,1.744c0,1.6,1.531,2.562,4.022,2.562a7.264,7.264,0,0,0,3.737-.889,2.5,2.5,0,0,0,1.566-2.135c0-.926-.534-1.388-1.566-1.388M140.05,47.428a2.2,2.2,0,0,0-1.922-1.387c-1.5,0-2.42,1.6-2.42,4.2a2.033,2.033,0,0,0,.036.5c.142,2.919,1.032,4.413,2.669,4.413,1.6,0,2.384-1.388,2.384-4.2a7.2,7.2,0,0,0-.747-3.524m18.15,1.744c-.961,0-1.566-.569-1.744-1.673-.071-.462-.214-.676-.427-.676a1.744,1.744,0,0,0-1.067.569,4.806,4.806,0,0,0-1.566,3.772v5.09a4.286,4.286,0,0,0,.356,2.242,2.012,2.012,0,0,0,1.53.427h.107v1.139h-7.83V58.923h.142A1.97,1.97,0,0,0,149.2,58.5a3.853,3.853,0,0,0,.392-2.242V49.848a3.006,3.006,0,0,0-.143-1.209c-.142-.356-.5-.463-1.032-.463l-.747.036V47.144a12.637,12.637,0,0,0,2.634-.569,8.579,8.579,0,0,0,2.42-1.459h.676v2.277a10.785,10.785,0,0,1,1.957-2.028,3.345,3.345,0,0,1,1.887-.534,2.945,2.945,0,0,1,1.957.712,2.392,2.392,0,0,1,.818,1.78,1.767,1.767,0,0,1-1.815,1.851m10.543,10.89h-7.829V58.923h.142a1.97,1.97,0,0,0,1.495-.427,3.853,3.853,0,0,0,.392-2.242V49.848a3.12,3.12,0,0,0-.143-1.209c-.142-.356-.5-.463-1.032-.463l-.747.036V47.144a12.64,12.64,0,0,0,2.633-.569,8.579,8.579,0,0,0,2.42-1.459h.676V56.254a4.288,4.288,0,0,0,.356,2.242,2.012,2.012,0,0,0,1.53.427h.107Zm-2.456-18.755a2.015,2.015,0,0,1-1.459.6,1.986,1.986,0,0,1-1.459-.569,2.079,2.079,0,0,1-.606-1.459,2.229,2.229,0,0,1,.57-1.495,1.973,1.973,0,0,1,1.459-.641,1.993,1.993,0,0,1,1.494.641,1.982,1.982,0,0,1,0,2.919m17.545,14.022a8.416,8.416,0,0,1-2.883,3.844,7.611,7.611,0,0,1-4.413,1.352,7.211,7.211,0,0,1-5.373-2.277,7.793,7.793,0,0,1-2.207-5.587,7.492,7.492,0,0,1,2.277-5.517,7.65,7.65,0,0,1,5.623-2.277,7.18,7.18,0,0,1,4.092,1.1,3.125,3.125,0,0,1,1.637,2.634c0,1.245-.57,1.851-1.744,1.851a2.088,2.088,0,0,1-2.17-1.993l-.142-.783a1.776,1.776,0,0,0-2.029-1.495,3.015,3.015,0,0,0-2.562,1.424,6.011,6.011,0,0,0-1.032,3.559,6.5,6.5,0,0,0,1.566,4.413,5.071,5.071,0,0,0,3.915,1.78,5.583,5.583,0,0,0,4.591-2.491ZM201.8,58.318a8.5,8.5,0,0,0-4.733,1.851H196l.107-1.994a7.007,7.007,0,0,1-5.374,2.385,5.293,5.293,0,0,1-3.665-1.281,4.637,4.637,0,0,1-1.388-3.31V49.35a1.5,1.5,0,0,0-.392-1.245,2.416,2.416,0,0,0-1.245-.249h-.285V46.787c1.495-.391,3.167-.854,4.983-1.423h.782v.818a5.3,5.3,0,0,0-.036.6c0,.569-.036,1.352-.036,1.424V54.4a4.788,4.788,0,0,0,.712,2.954,2.913,2.913,0,0,0,2.385,1.067,3.523,3.523,0,0,0,2.491-1,3.074,3.074,0,0,0,1.068-2.313V49.35c0-.747-.178-1.174-.5-1.352a3.45,3.45,0,0,0-1.068-.142h-.213V46.787c1.779-.462,3.417-.925,4.875-1.423h.747a12.716,12.716,0,0,1-.036,1.423v9.5c0,.462.142.747.5.854a2.481,2.481,0,0,0,.854.107h.534Zm8.352,1.744h-7.723V58.923h.142a1.784,1.784,0,0,0,1.424-.427,3.859,3.859,0,0,0,.391-2.242V40.88c0-.783-.107-1.281-.32-1.459a1.3,1.3,0,0,0-.712-.178h-.819V38.175a13.649,13.649,0,0,0,2.634-.711,8.8,8.8,0,0,0,2.385-1.495h.925a17.856,17.856,0,0,0-.285,2.776v17.51a4.28,4.28,0,0,0,.356,2.242,1.928,1.928,0,0,0,1.459.427h.142Zm10.778-2.242c-1.566,1.815-3.167,2.7-4.911,2.7a3.814,3.814,0,0,1-2.527-.926c-.889-.747-1.317-2.064-1.317-3.915V46.859h-1.886V45.791a6.318,6.318,0,0,0,2.954-1.495,5.625,5.625,0,0,0,1.779-2.669h1.067v3.7h4.271l-.5,1.531h-3.773v8.826q0,2.563,1.6,2.563A3.9,3.9,0,0,0,220.214,57Zm18.079.5a8.5,8.5,0,0,0-4.733,1.851H233.2l.107-1.994a7.007,7.007,0,0,1-5.374,2.385,5.3,5.3,0,0,1-3.666-1.281,4.636,4.636,0,0,1-1.387-3.31V49.35a1.5,1.5,0,0,0-.392-1.245,2.416,2.416,0,0,0-1.246-.249h-.284V46.787c1.494-.391,3.167-.854,4.982-1.423h.783v.818a5.379,5.379,0,0,0-.035.6c0,.569-.036,1.352-.036,1.424V54.4a4.788,4.788,0,0,0,.712,2.954,2.913,2.913,0,0,0,2.384,1.067,3.525,3.525,0,0,0,2.491-1,3.077,3.077,0,0,0,1.068-2.313V49.35c0-.747-.178-1.174-.5-1.352a3.45,3.45,0,0,0-1.068-.142h-.214V46.787c1.78-.462,3.417-.925,4.876-1.423h.747a12.513,12.513,0,0,1-.036,1.423v9.5c0,.462.143.747.5.854a2.481,2.481,0,0,0,.854.107H239Zm11.281-9.146c-.961,0-1.566-.569-1.744-1.673-.071-.462-.214-.676-.427-.676a1.744,1.744,0,0,0-1.067.569,4.806,4.806,0,0,0-1.566,3.772v5.09a4.288,4.288,0,0,0,.356,2.242,2.013,2.013,0,0,0,1.531.427h.107v1.139h-7.83V58.923h.143a1.969,1.969,0,0,0,1.494-.427,3.853,3.853,0,0,0,.392-2.242V49.848a3,3,0,0,0-.142-1.209c-.142-.356-.5-.463-1.032-.463l-.747.036V47.144a12.645,12.645,0,0,0,2.634-.569,8.577,8.577,0,0,0,2.42-1.459h.676v2.277a10.765,10.765,0,0,1,1.957-2.028,3.344,3.344,0,0,1,1.886-.534,2.943,2.943,0,0,1,1.957.712,2.392,2.392,0,0,1,.819,1.78,1.767,1.767,0,0,1-1.815,1.851m17.795,9.146a4.144,4.144,0,0,1-3.523,1.957,2.6,2.6,0,0,1-2.562-1.851l-.391.285a7.7,7.7,0,0,1-4.342,1.815,4.692,4.692,0,0,1-3.309-1.21,3.828,3.828,0,0,1-1.388-2.954,3.4,3.4,0,0,1,1.886-3.1,48.746,48.746,0,0,1,7.366-2.527c0-2.135-.213-3.452-.641-3.986a1.89,1.89,0,0,0-1.566-.641,3.911,3.911,0,0,0-2.1.5,1.378,1.378,0,0,0-.854,1.139v.071l.071.925v.214a1.94,1.94,0,0,1-1.85,2.136,1.564,1.564,0,0,1-1.211-.57,2.112,2.112,0,0,1-.5-1.352,3.51,3.51,0,0,1,2.064-3.061,9.889,9.889,0,0,1,5.16-1.245,7.051,7.051,0,0,1,4.236,1.1,2.384,2.384,0,0,1,1,1.566,11.761,11.761,0,0,1,.106,1.957v5.872c0,.926.036,1.459.036,1.637.106.747.356,1.139.782,1.139a1.771,1.771,0,0,0,.819-.463Zm-6.415-6.441a17.368,17.368,0,0,0-3.807,1.352,2.87,2.87,0,0,0-1.6,2.6,2.97,2.97,0,0,0,.712,1.993,2.5,2.5,0,0,0,1.851.747c1.744,0,2.847-1.352,2.847-3.488Zm14.6,8.185h-7.723V58.923h.142a1.783,1.783,0,0,0,1.423-.427,3.853,3.853,0,0,0,.392-2.242V40.88c0-.783-.107-1.281-.321-1.459a1.3,1.3,0,0,0-.712-.178h-.818V38.175a13.662,13.662,0,0,0,2.634-.711,8.805,8.805,0,0,0,2.384-1.495h.925a17.935,17.935,0,0,0-.285,2.776v17.51a4.28,4.28,0,0,0,.356,2.242,1.929,1.929,0,0,0,1.459.427h.142Zm45.767-1.584a8.3,8.3,0,0,1-6.055,2.067,8.019,8.019,0,0,1-5.615-2.369,6.935,6.935,0,0,1-2.2-5.419,7.789,7.789,0,0,1,2.621-5.713,7.942,7.942,0,0,1,5.987-2.177,8.27,8.27,0,0,1,5.718,2.479,7.305,7.305,0,0,1,2.19,5.6,7.422,7.422,0,0,1-2.651,5.534m-3-10.143a3.423,3.423,0,0,0-2.951-2.168c-2.241-.078-3.441,1.66-3.566,5.252a11.984,11.984,0,0,0,.942,5.624,3.451,3.451,0,0,0,2.984,2.241c2.241.078,3.444-1.767,3.575-5.5a10.975,10.975,0,0,0-.985-5.448m21.247,10.588a1.928,1.928,0,0,1-1.459-.427,4.28,4.28,0,0,1-.356-2.242V38.745a17.857,17.857,0,0,1,.285-2.776h-.925a8.8,8.8,0,0,1-2.385,1.495,13.65,13.65,0,0,1-2.634.711v1.068h.819a1.3,1.3,0,0,1,.712.178c.213.178.32.676.32,1.459V56.254a3.859,3.859,0,0,1-.391,2.242,1.784,1.784,0,0,1-1.424.427h-.248a1.928,1.928,0,0,1-1.459-.427,4.281,4.281,0,0,1-.356-2.242V38.745a17.922,17.922,0,0,1,.284-2.776h-.924a8.8,8.8,0,0,1-2.385,1.495,13.649,13.649,0,0,1-2.634.711v1.068h.819a1.3,1.3,0,0,1,.711.178c.214.178.321.676.321,1.459V56.254a3.859,3.859,0,0,1-.391,2.242,1.784,1.784,0,0,1-1.424.427h-.142v1.139h15.41V58.923Zm14.9-2.282a9.989,9.989,0,0,1-1.477,1.816A7.136,7.136,0,0,1,347.14,60.3a7.212,7.212,0,0,1-4.84-3.262,7.471,7.471,0,0,1-1.162-5.773,7.7,7.7,0,0,1,3.288-5.162A7.833,7.833,0,0,1,350.477,45a6.917,6.917,0,0,1,3.949,2.254,4.166,4.166,0,0,1,1.255,3.615,1,1,0,0,1-.951.794l-1.424.05-8.088.2a7.392,7.392,0,0,0,.729,3.332,4.857,4.857,0,0,0,3.5,2.347,5.64,5.64,0,0,0,4.975-1.535Zm-3.44-6.766A4.008,4.008,0,0,0,351,47.519a3.055,3.055,0,0,0-2.074-1.454c-1.782-.346-3.2.973-3.66,3.349-.062.315-.08.782-.132,1.425l5.17-.3c.914-.04,1.388-.238,1.449-.552a.28.28,0,0,0-.014-.112m17.681,15.241a10.873,10.873,0,0,1-6.157,1.709,9.388,9.388,0,0,1-4.84-1.068,3.186,3.186,0,0,1-1.815-2.847,2.853,2.853,0,0,1,1.886-2.6,2.815,2.815,0,0,1-1.246-2.349,3.038,3.038,0,0,1,.213-1.1,4.964,4.964,0,0,1,1.672-1.992,5.816,5.816,0,0,1-1.921-4.164,5.206,5.206,0,0,1,1.851-4.057,6.78,6.78,0,0,1,4.662-1.637,9.879,9.879,0,0,1,2.7.427c1.1-1.708,2.313-2.562,3.595-2.562a1.854,1.854,0,0,1,1.993,1.851,1.459,1.459,0,0,1-1.495,1.494,1.582,1.582,0,0,1-.925-.285l-.463-.356a1.163,1.163,0,0,0-.747-.391,1.843,1.843,0,0,0-1,.641,5.836,5.836,0,0,1,2.74,4.7,5.407,5.407,0,0,1-1.85,4.235,6.831,6.831,0,0,1-4.662,1.637,10.429,10.429,0,0,1-3.524-.782,1.947,1.947,0,0,0-1.246,1.744c0,.747.5,1.1,1.531,1.1A20.973,20.973,0,0,0,363.721,58a26.249,26.249,0,0,1,3.7-.534,5.1,5.1,0,0,1,3.31,1,3.045,3.045,0,0,1,1.281,2.562,4.892,4.892,0,0,1-2.6,4.093m-2.536-3.879c-.107,0-.427.035-1.067.107l-2.206.249a14.458,14.458,0,0,1-1.495.107,6.671,6.671,0,0,1-2.1-.356,2.275,2.275,0,0,0-.89,1.744c0,1.6,1.531,2.562,4.022,2.562a7.262,7.262,0,0,0,3.737-.889,2.5,2.5,0,0,0,1.566-2.135c0-.926-.534-1.388-1.566-1.388m-1.708-13.809a2.2,2.2,0,0,0-1.922-1.387c-1.495,0-2.42,1.6-2.42,4.2a2.035,2.035,0,0,0,.036.5c.143,2.919,1.032,4.413,2.669,4.413,1.6,0,2.385-1.388,2.385-4.2a7.188,7.188,0,0,0-.747-3.524m21.075,9.213a9.986,9.986,0,0,1-1.477,1.816,7.136,7.136,0,0,1-6.558,1.844,7.211,7.211,0,0,1-4.84-3.262,7.471,7.471,0,0,1-1.162-5.773A7.7,7.7,0,0,1,375.5,46.1,7.833,7.833,0,0,1,381.549,45,6.918,6.918,0,0,1,385.5,47.25a4.167,4.167,0,0,1,1.255,3.615,1,1,0,0,1-.952.794l-1.424.05-8.088.2a7.4,7.4,0,0,0,.73,3.332,4.855,4.855,0,0,0,3.5,2.347,5.639,5.639,0,0,0,4.975-1.535Zm-3.441-6.766a4,4,0,0,0-.738-2.355,3.053,3.053,0,0,0-2.074-1.454c-1.782-.346-3.2.973-3.659,3.349-.062.315-.08.782-.132,1.425l5.17-.3c.914-.04,1.388-.238,1.448-.552a.266.266,0,0,0-.014-.112m-77.86-7.9a7.681,7.681,0,0,0-3.15-3.523,8.471,8.471,0,0,0-4.671-1.19,8.319,8.319,0,0,0-4.334,1.326A8.167,8.167,0,0,0,289.919,42a14.344,14.344,0,0,0-1.336,6.635,11.43,11.43,0,0,0,2.9,7.485,8.084,8.084,0,0,0,6.51,2.871,7.122,7.122,0,0,0,6.9-5.476l1.4.307-.257,3.855a14.435,14.435,0,0,1-8.236,2.78,13.163,13.163,0,0,1-9.622-3.261,11.952,11.952,0,0,1-4.086-8.9,11.463,11.463,0,0,1,3.223-8.66,12.167,12.167,0,0,1,8.666-3.722,14.329,14.329,0,0,1,5.441.808,15.6,15.6,0,0,0,1.73.58l.324.1.178-.006c.32-.011.455-.229.44-.656l1.314-.117.89,5.1ZM130.7,30.386h-8.537V29.106q1.707,0,1.707-.96a2.075,2.075,0,0,0-.214-.925l-.213-.462-1.707-4.553h-9l-1.6,4.3a4.379,4.379,0,0,0-.355,1.351c0,.819.639,1.245,1.885,1.245h.142v1.281h-6.651V29.106A3.069,3.069,0,0,0,109,26.829l6.864-17a4.5,4.5,0,0,1,1.529-2.24l.819-.462c.077-.046.516-.234.989-.43a1.137,1.137,0,0,1,1.519.654q.068.2.159.416l7.327,19.242a4.346,4.346,0,0,0,.961,1.637,2.6,2.6,0,0,0,1.529.462Zm-9.6-9.852L117.22,10.361l-3.842,10.173Zm9.617,39.551h-8.537V58.8q1.707,0,1.707-.96a2.071,2.071,0,0,0-.214-.924l-.214-.462L121.75,51.9h-9l-1.6,4.3a4.394,4.394,0,0,0-.356,1.351c0,.819.64,1.245,1.886,1.245h.142v1.281h-6.651V58.8a3.069,3.069,0,0,0,2.845-2.276l6.864-17a4.5,4.5,0,0,1,1.529-2.241l.819-.462c.077-.046.516-.234.989-.43a1.137,1.137,0,0,1,1.519.654q.068.2.159.416l7.327,19.242a4.347,4.347,0,0,0,.961,1.636,2.6,2.6,0,0,0,1.529.462Zm-9.6-9.852-3.877-10.172-3.841,10.172Z" transform="translate(-42.064 -2.493)" fill="#006130"/>
    <path id="Path_2" data-name="Path 2" d="M51.269,30.227a39.757,39.757,0,0,1-1.523,11.016,28.23,28.23,0,0,1-1.958,5.1,25.522,25.522,0,0,1-3.936,5.253,49.089,49.089,0,0,1-5.247,4.9q-.705.569-1.434,1.115a52.678,52.678,0,0,1-4.577,3.065l-4.607,2.749-1.722-1.028L23.38,60.667A52.576,52.576,0,0,1,18.8,57.6q-.729-.546-1.435-1.115a49.216,49.216,0,0,1-5.248-4.9q-.344-.372-.664-.735a26.962,26.962,0,0,1-2.729-3.575c-.2-.324-.385-.64-.542-.942-.088-.17-.171-.358-.257-.536q-.3-.619-.577-1.3c-.129-.318-.255-.644-.379-.981-.262-.719-.514-1.471-.746-2.276-.223-.776-.418-1.563-.593-2.357a39.238,39.238,0,0,1-.714-4.426q-.072-.7-.12-1.4-.1-1.406-.1-2.833V4.706H51.269Z" transform="translate(-1.865 -1.865)" fill="#fff"/>
    <path id="Path_3" data-name="Path 3" d="M0,0V28.362a42.615,42.615,0,0,0,1.634,11.8A31.021,31.021,0,0,0,3.8,45.778a28.2,28.2,0,0,0,4.372,5.877A53.463,53.463,0,0,0,20.06,61.241l6.063,3.618,6.063-3.618a53.463,53.463,0,0,0,11.889-9.586,28.256,28.256,0,0,0,4.373-5.877,31.111,31.111,0,0,0,2.164-5.614,42.615,42.615,0,0,0,1.634-11.8V0ZM49.4,28.362a39.75,39.75,0,0,1-1.523,11.016,28.193,28.193,0,0,1-1.957,5.1,25.542,25.542,0,0,1-3.936,5.253,49.089,49.089,0,0,1-5.247,4.9q-.705.568-1.435,1.115A52.483,52.483,0,0,1,30.73,58.8l-4.607,2.75L24.4,60.523,21.516,58.8a52.565,52.565,0,0,1-4.576-3.064q-.729-.546-1.434-1.115a49.1,49.1,0,0,1-5.248-4.9q-.344-.372-.665-.734a27.068,27.068,0,0,1-2.729-3.576c-.2-.324-.385-.64-.542-.942-.088-.17-.171-.358-.257-.537q-.3-.619-.577-1.3c-.129-.317-.256-.643-.379-.98-.263-.719-.514-1.471-.746-2.276-.223-.775-.418-1.563-.593-2.356a39.364,39.364,0,0,1-.714-4.427q-.072-.7-.12-1.4-.1-1.406-.1-2.833V2.84H49.4ZM31.13,25.773a.729.729,0,0,0,.6.887.754.754,0,0,0,.673-.225c.016-.018.054-.018.063,0a.9.9,0,0,0,.187.28.991.991,0,0,0,.273.173c.059.025.118.048.179.068l.1.033a.941.941,0,0,0,.107.031c.054.01.069.091,0,.126-2.42,1.241-4.977-.312-4.977-2.2a10.093,10.093,0,0,1,.561-3.225.176.176,0,0,1,.188-.123,3.56,3.56,0,0,1,2.949,3.466.048.048,0,0,1-.056.052.813.813,0,0,0-.854.659M35.5,38.887a1.374,1.374,0,0,1,.077,2.169.169.169,0,0,1-.215-.016c-.747-.651-1.122,1.068-1.1,1.747a.117.117,0,0,1-.161.11c-3.583-1.476-.266-5.251,1.4-4.01m-9.387.773a.059.059,0,0,1,.1-.021A20.624,20.624,0,0,1,28.6,43.611a15.417,15.417,0,0,1,.919,3.254,7.526,7.526,0,0,0,.35,1.692,3.489,3.489,0,0,0,1.006,1.363,5.555,5.555,0,0,0,3.12,1.04,4.561,4.561,0,0,0,1.766-.131,3.629,3.629,0,0,0,1.628-1.176,7.443,7.443,0,0,0,.706-1.04,9.338,9.338,0,0,1,.451-.871,1.385,1.385,0,0,0,.892-.43,4.252,4.252,0,0,0,.353-1c.335-1.027.891-1.372,1.767-2.076a3.893,3.893,0,0,0,.9-.907A2.973,2.973,0,0,0,42.6,40.9c-.242-.8-.65-1.543-.878-2.347-.056-.2-.115-.437-.175-.69a11.751,11.751,0,0,1,.222-6.41l.015-.046a15.912,15.912,0,0,0,1.427-5.556c.358-.564.627-.936.627-.936,1.308-1.84.3-3.409-.3-4.9a14.774,14.774,0,0,0-1.634-5.661c2.327-2.482,4.825-9.683,2.921-9.214-.4.1-2.778,2.218-4.832,2.894-.989-1.012-1.952-1.814-4.826-1.906a.186.186,0,0,0-.133.318,1.587,1.587,0,0,1,.516,1.336A3.352,3.352,0,0,0,33.114,6.7s.517-1.509-.579-1.861a2.918,2.918,0,0,0-2.191.67,24.386,24.386,0,0,0-2.092,1.474c-2.407.575-5.17,1.657-7.787.389a.174.174,0,0,0-.254.185,3.742,3.742,0,0,0,2.679,2.821.167.167,0,0,1,.008.316c-2.251.748-6.294-1.4-10.631,2.623a.175.175,0,0,0,.146.3c.768-.148,2.048-.242,2.543.613a.189.189,0,0,1-.123.283,12.421,12.421,0,0,0-8.7,7.962.176.176,0,0,0,.274.2,3,3,0,0,1,3.946.02.112.112,0,0,1,.025.152,16.739,16.739,0,0,1-5.837,4.717v.8a39.3,39.3,0,0,0,.416,5.7C13.6,21.837,23.182,15.571,26.2,13.951a.688.688,0,0,0,.35-.685,6.955,6.955,0,0,1,2.977-6.239,10.334,10.334,0,0,1,2.7-1.57c.033.016-5.969,3.517-3.761,9.065.791-2.384,3.533-1.309,3.556-4.837a.041.041,0,0,1,.082-.011c.847,3.542-1.9,3.366-2.026,5.614a.573.573,0,0,1-.322.485,13.149,13.149,0,0,1-4.689.854.084.084,0,0,0-.045.153,7.251,7.251,0,0,0,3.8,1.053.086.086,0,0,1,.054.154,4.973,4.973,0,0,1-1.547.8.088.088,0,0,0,.023.171c.9.075,1.793-.043,2.689.121a6.7,6.7,0,0,1,2.414.949,5.809,5.809,0,0,1,1.776,1.755A9.189,9.189,0,0,1,35.308,24.9c.216,1.054.446,2.1.632,3.157.394,2.254.714,4.52,1,6.79.123.969.242,2.21.348,3.243a.338.338,0,0,0,.424.29l.906-.239a.645.645,0,0,0,.48-.654c-.135-2.844-.79-16.377-.979-16.7-.37-.635-.891-.433-.828-2.242a6.2,6.2,0,0,1,.969-3.024,13.8,13.8,0,0,1,1.556,2.948,2.342,2.342,0,0,1-.3,1.935,4.245,4.245,0,0,0-.37,2.222c-.062,1.581,1.091,15.383,1.091,15.383l.982,1.564a.388.388,0,0,1-.092.517c-.417.318-1.2.866-1.575.831-.831-.075-1.647-1.285-2.79-1.776a.122.122,0,0,0-.159.165c.761,1.742-.57,4.4-2.579,4.6a.066.066,0,0,0-.041.117,4.1,4.1,0,0,1,1.472,2.6.32.32,0,0,1-.366.37,5.729,5.729,0,0,1-3.158-1.259,3.779,3.779,0,0,1-.56-1.006c.024.059.044.116.068.176-.038-.085-.075-.174-.1-.254.007.026.024.051.034.078-.509-1.328-.315-2.646-5.2-8.129-.023-.022.01-.062.03-.049a17.835,17.835,0,0,1,3.045,2.213c.036.034.091-.008.074-.055a22.679,22.679,0,0,0-1.94-4.028.1.1,0,0,0-.133-.033,4.068,4.068,0,0,1-2.867.919c-6.067-.767-5.677-10.33-1.558-15.911a.139.139,0,0,0-.2-.187c-5.68,4.861-12.826,14.662-12.925,27q.791,1,1.814,2.105a48.932,48.932,0,0,0,10.881,8.768l3.734,2.228,2.95-1.76a30.556,30.556,0,0,1-2.962-18.147m14.5-30.794c-.008-.018-.025-.038.016-.063s.075-.039.112-.059q.155-.082.309-.168t.316-.182q.162-.094.321-.192t.321-.2c.107-.068.213-.137.318-.208s.206-.14.309-.212.2-.142.3-.214.187-.142.28-.214.174-.14.259-.213.157-.136.234-.208c.1-.092.257-.3.284-.288s-.025.222-.051.33-.07.24-.109.358c-.019.057-.037.114-.057.17-.385,1.421-1.816,1.9-2.46,3.22-.018.037-.043.028-.046,0a6.412,6.412,0,0,0-.35-1.089c-.079-.173-.264-.494-.3-.57m-9.5,38.021a.108.108,0,0,1,.207-.008,3.206,3.206,0,0,0,2.524,1.961c.945.207-.167,1.147-1.423.778a2.123,2.123,0,0,1-1.308-2.731" transform="translate(0 0)" fill="#006130"/>
  </g>
</svg>
