<svg id="Group_306" data-name="Group 306" xmlns="http://www.w3.org/2000/svg" xmlns:xlink="http://www.w3.org/1999/xlink" width="51.186" height="50.487" viewBox="0 0 51.186 50.487">
  <defs>
    <clipPath id="clip-path">
      <rect id="Rectangle_534" data-name="Rectangle 534" width="51.186" height="50.487" fill="#006130"/>
    </clipPath>
  </defs>
  <g id="Group_93" data-name="Group 93" clip-path="url(#clip-path)">
    <path id="Path_269" data-name="Path 269" d="M50.463,238.847H.723a.723.723,0,0,1,0-1.446h49.74a.723.723,0,0,1,0,1.446" transform="translate(0 -188.36)" fill="#006130"/>
    <path id="Path_270" data-name="Path 270" d="M89.271,12.6a.723.723,0,0,1-.642-1.055,7.3,7.3,0,0,0,.7-4.49l-.89-5.446a8.066,8.066,0,0,1-4.959,1.72,7.943,7.943,0,0,1-2.95-.567,5.366,5.366,0,0,0-6.5,2.181L73.054,6.5a2.2,2.2,0,0,1-1.862,1.039,2.154,2.154,0,0,1-.966-.227.726.726,0,0,0-.321-.077.786.786,0,0,0-.758.675,4.89,4.89,0,0,0,.491,3.109l.275.519a.723.723,0,0,1-1.278.677l-.275-.52a6.343,6.343,0,0,1-.638-4.031A2.228,2.228,0,0,1,69.9,5.789a2.164,2.164,0,0,1,.961.226.749.749,0,0,0,.965-.287l.982-1.557a6.812,6.812,0,0,1,8.255-2.753,6.5,6.5,0,0,0,2.415.464A6.627,6.627,0,0,0,87.762.3a1.25,1.25,0,0,1,.809-.3A1.269,1.269,0,0,1,89.82,1.074l.94,5.749a8.752,8.752,0,0,1-.846,5.386.723.723,0,0,1-.643.392M88.7,1.4h0Z" transform="translate(-53.659)" fill="#006130"/>
    <path id="Path_271" data-name="Path 271" d="M79.02,71.351H78.7a2.469,2.469,0,0,1-2.467-2.466v-.754a2.1,2.1,0,0,1,2.1-2.1h.705a.723.723,0,1,1,0,1.446h-.705a.653.653,0,0,0-.652.652v.754A1.021,1.021,0,0,0,78.7,69.9h.319a.723.723,0,1,1,0,1.446" transform="translate(-60.486 -52.392)" fill="#006130"/>
    <path id="Path_272" data-name="Path 272" d="M156.037,71.351h-.32a.723.723,0,1,1,0-1.446h.32a1.021,1.021,0,0,0,1.019-1.02v-.754a.653.653,0,0,0-.652-.652H155.7a.723.723,0,1,1,0-1.446h.705a2.1,2.1,0,0,1,2.1,2.1v.754a2.468,2.468,0,0,1-2.465,2.466" transform="translate(-122.962 -52.392)" fill="#006130"/>
    <path id="Path_273" data-name="Path 273" d="M32.477,153.347a.737.737,0,0,1-.092-.006.723.723,0,0,1-.626-.809L33.1,142.069c0-.014,0-.027.006-.041a7.787,7.787,0,0,1,5.954-6.171l8.109-1.817a.723.723,0,0,1,.316,1.411l-8.109,1.817a6.342,6.342,0,0,0-4.845,5.006l-1.333,10.442a.723.723,0,0,1-.716.631" transform="translate(-25.194 -106.337)" fill="#006130"/>
    <path id="Path_274" data-name="Path 274" d="M152.737,153.348a.723.723,0,0,1-.716-.632l-1.332-10.442a6.342,6.342,0,0,0-4.847-5.006l-8.107-1.817a.723.723,0,1,1,.316-1.411l8.107,1.817a7.786,7.786,0,0,1,5.956,6.171c0,.014,0,.028.007.042l1.335,10.464a.723.723,0,0,1-.626.809.735.735,0,0,1-.092.006" transform="translate(-108.835 -106.337)" fill="#006130"/>
    <path id="Path_275" data-name="Path 275" d="M108.181,125.056a4.1,4.1,0,0,1-3.974-2.519,3.038,3.038,0,0,1-.184-1,3.5,3.5,0,0,1,.018-.376l.262-2.474a.723.723,0,1,1,1.438.152l-.262,2.474a2.052,2.052,0,0,0-.01.213,1.6,1.6,0,0,0,.1.519,2.705,2.705,0,0,0,2.614,1.563,2.8,2.8,0,0,0,2.533-1.374,1.638,1.638,0,0,0,.175-.7,1.937,1.937,0,0,0-.009-.226l-.265-2.5a.723.723,0,0,1,1.438-.153l.266,2.5a3.381,3.381,0,0,1,.016.4,3.062,3.062,0,0,1-.322,1.311,4.2,4.2,0,0,1-3.831,2.184" transform="translate(-82.535 -93.634)" fill="#006130"/>
    <path id="Path_276" data-name="Path 276" d="M87.027,57.928a.723.723,0,0,1-.677-.977,4.414,4.414,0,0,1,4.031-2.956,4.032,4.032,0,0,1,1.709.386.723.723,0,0,1-.609,1.311,2.6,2.6,0,0,0-1.1-.251A2.965,2.965,0,0,0,87.7,57.459a.724.724,0,0,1-.677.469" transform="translate(-68.476 -42.841)" fill="#006130"/>
    <path id="Path_277" data-name="Path 277" d="M101.212,57.928a.723.723,0,0,1-.677-.469,3.138,3.138,0,0,0-1.71-1.825,2.519,2.519,0,0,0-2.064.058l-.935.434a4.037,4.037,0,0,1-3.415,0l-.932-.434a2.6,2.6,0,0,0-1.1-.251A2.965,2.965,0,0,0,87.7,57.459a.723.723,0,0,1-1.354-.508,4.415,4.415,0,0,1,4.031-2.956,4.032,4.032,0,0,1,1.709.386l.932.434a2.561,2.561,0,0,0,2.194,0l.935-.434a3.984,3.984,0,0,1,3.221-.086,4.585,4.585,0,0,1,2.517,2.655.724.724,0,0,1-.677.977" transform="translate(-68.475 -42.841)" fill="#006130"/>
    <path id="Path_278" data-name="Path 278" d="M94.054,94.257a4.85,4.85,0,0,1-1.94-.4,9.818,9.818,0,0,1-5.835-7.816l-.053-.458a.723.723,0,0,1,1.436-.166l.053.455a8.367,8.367,0,0,0,4.974,6.659,3.462,3.462,0,0,0,2.734,0,8.348,8.348,0,0,0,4.972-6.662l.052-.452a.723.723,0,1,1,1.436.167l-.053.455a9.793,9.793,0,0,1-5.835,7.82,4.87,4.87,0,0,1-1.941.4" transform="translate(-68.41 -67.262)" fill="#006130"/>
    <path id="Path_279" data-name="Path 279" d="M85.439,169.094h-.034a.723.723,0,0,1-.689-.755l.331-7.244H61.167l.331,7.244a.723.723,0,0,1-1.445.066l-.337-7.377a1.326,1.326,0,0,1,.344-.989,1.19,1.19,0,0,1,.88-.39H85.274a1.188,1.188,0,0,1,.876.386,1.333,1.333,0,0,1,.347,1l-.337,7.368a.723.723,0,0,1-.722.69m-24.28-8.165h0Z" transform="translate(-47.379 -126.669)" fill="#006130"/>
    <path id="Path_280" data-name="Path 280" d="M80.109,221.891H56.387a2.8,2.8,0,0,1-2.8-2.8v-2.341a.723.723,0,0,1,.723-.723h27.87a.723.723,0,0,1,.723.723v2.341a2.8,2.8,0,0,1-2.8,2.8m-25.073-4.414v1.618a1.352,1.352,0,0,0,1.351,1.351H80.109a1.352,1.352,0,0,0,1.351-1.351v-1.618Z" transform="translate(-42.52 -171.405)" fill="#006130"/>
  </g>
</svg>
