<svg xmlns="http://www.w3.org/2000/svg" width="363.499" height="451.267" viewBox="0 0 363.499 451.267">
  <path id="Path_494" data-name="Path 494" d="M0,0V197.333a296.491,296.491,0,0,0,11.367,82.114,215.826,215.826,0,0,0,15.059,39.062c6.2,12.01,16.437,25.767,30.421,40.889a371.968,371.968,0,0,0,82.719,66.694l42.183,25.175,42.183-25.175A371.967,371.967,0,0,0,306.647,359.4c13.976-15.118,24.213-28.875,30.425-40.889a216.453,216.453,0,0,0,15.059-39.062A296.489,296.489,0,0,0,363.5,197.333V0ZM343.726,197.333a276.561,276.561,0,0,1-10.594,76.641,196.154,196.154,0,0,1-13.619,35.458c-5.4,10.434-14.614,22.734-27.384,36.546a341.52,341.52,0,0,1-36.5,34.067q-4.908,3.951-9.981,7.754A365.173,365.173,0,0,1,213.8,409.117l-32.051,19.13-11.98-7.149-20.075-11.98A365.747,365.747,0,0,1,117.853,387.8q-5.072-3.8-9.977-7.754a341.616,341.616,0,0,1-36.512-34.067q-2.394-2.59-4.625-5.108a188.325,188.325,0,0,1-18.987-24.88c-1.395-2.252-2.68-4.453-3.768-6.553-.609-1.185-1.189-2.491-1.785-3.734q-2.073-4.31-4.012-9.069c-.9-2.205-1.781-4.474-2.634-6.822-1.827-5-3.579-10.233-5.192-15.836-1.554-5.394-2.911-10.871-4.125-16.4a273.87,273.87,0,0,1-4.969-30.8q-.5-4.845-.832-9.737-.668-9.779-.668-19.709V19.767H343.726ZM216.59,179.32a5.074,5.074,0,0,0,4.2,6.171,5.247,5.247,0,0,0,4.679-1.567c.113-.122.378-.126.441.025a6.251,6.251,0,0,0,1.3,1.945,6.893,6.893,0,0,0,1.9,1.2c.407.176.823.332,1.243.47.235.08.47.155.71.227a6.567,6.567,0,0,0,.744.218c.374.071.483.63,0,.878-16.84,8.637-34.626-2.168-34.626-15.332a70.225,70.225,0,0,1,3.907-22.44,1.227,1.227,0,0,1,1.306-.857c19.541,4.188,20.155,20.991,20.52,24.116a.334.334,0,0,1-.387.361,5.654,5.654,0,0,0-5.94,4.583m30.387,91.242c5.116,3.953,5.289,11.291.538,15.093a1.179,1.179,0,0,1-1.5-.113c-5.2-4.528-7.8,7.431-7.662,12.157a.814.814,0,0,1-1.122.764c-24.927-10.271-1.848-36.533,9.741-27.9m-65.312,5.381a.41.41,0,0,1,.723-.147c2.961,3.382,12.707,18.13,16.567,27.632a107.267,107.267,0,0,1,6.393,22.637c.668,3.982.87,8,2.436,11.77a24.277,24.277,0,0,0,7,9.481c6,4.9,13.984,6.624,21.709,7.234,4.121.323,8.355.365,12.287-.911a25.251,25.251,0,0,0,11.325-8.179,51.78,51.78,0,0,0,4.911-7.233c.319-.55,2.835-6.057,3.138-6.057a9.638,9.638,0,0,0,6.209-2.995c1.109-1.47,1.684-4.608,2.453-6.952,2.331-7.145,6.2-9.548,12.3-14.442a27.084,27.084,0,0,0,6.288-6.309c3.1-4.923,2.7-11.312,1.012-16.874s-4.524-10.737-6.108-16.328c-.386-1.378-.8-3.037-1.218-4.8a81.756,81.756,0,0,1,1.546-44.594c.034-.105.067-.21.1-.319,6.007-11.682,8.62-25.838,9.926-38.654,2.491-3.923,4.364-6.511,4.364-6.511,9.1-12.8,2.071-23.721-2.088-34.063-1.517-15.593-5.557-28.674-11.371-39.385,16.193-17.269,33.572-67.37,20.323-64.106-2.8.676-19.327,15.433-33.622,20.138-6.881-7.04-13.581-12.623-33.576-13.261a1.293,1.293,0,0,0-.924,2.214c2.9,3.008,4,6.112,3.592,9.3C242.4,48.4,235.5,46.933,230.393,46.647c0,0,3.6-10.5-4.028-12.951-4.39-1.424-9.59,1.218-15.244,4.659a169.685,169.685,0,0,0-14.555,10.258c-16.744,4-35.97,11.531-54.176,2.705a1.213,1.213,0,0,0-1.764,1.29c2.991,13.312,13.308,18.042,18.642,19.625a1.16,1.16,0,0,1,.059,2.2c-15.66,5.2-43.788-9.733-73.965,18.252a1.215,1.215,0,0,0,1.012,2.1c5.343-1.029,14.249-1.684,17.693,4.268a1.316,1.316,0,0,1-.853,1.966c-24.091,5.041-51.773,27-60.531,55.394a1.224,1.224,0,0,0,1.907,1.365c4.9-3.869,15.211-9.283,27.455.139a.776.776,0,0,1,.176,1.054c-7.952,11.044-25.04,25.758-40.608,32.82v5.545a273.4,273.4,0,0,0,2.894,39.684c60.09-85.08,126.78-128.679,147.745-139.949a4.783,4.783,0,0,0,2.432-4.764c-2.042-20.432,9.565-34.739,20.713-43.409,8.41-6.6,18.311-11.161,18.806-10.926.227.109-41.532,24.473-26.166,63.069,5.5-16.588,24.578-9.107,24.738-33.651a.288.288,0,0,1,.567-.076c5.893,24.645-13.224,23.419-14.093,39.062a3.99,3.99,0,0,1-2.239,3.377c-10.888,5.108-27.124,5.839-32.622,5.94a.584.584,0,0,0-.311,1.063,50.449,50.449,0,0,0,26.435,7.326.6.6,0,0,1,.378,1.071,34.6,34.6,0,0,1-10.762,5.591.613.613,0,0,0,.16,1.189c6.263.525,12.476-.3,18.71.844a46.588,46.588,0,0,1,16.794,6.6,40.418,40.418,0,0,1,12.358,12.211c4.138,6.553,5.969,14.181,7.507,21.684,1.5,7.334,3.1,14.6,4.394,21.965,2.743,15.681,4.965,31.45,6.969,47.24.853,6.742,1.68,15.374,2.42,22.562a2.35,2.35,0,0,0,2.949,2.021l6.3-1.663a4.485,4.485,0,0,0,3.34-4.549c-.941-19.789-5.494-113.943-6.814-116.215-2.575-4.419-6.2-3.012-5.763-15.6a43.128,43.128,0,0,1,6.742-21.037s8.855,13,10.825,20.512a16.3,16.3,0,0,1-2.058,13.463c-2.957,4.549-2.373,10.275-2.575,15.458-.429,11,7.591,107.024,7.591,107.024l6.83,10.88a2.7,2.7,0,0,1-.638,3.6c-2.9,2.214-8.33,6.028-10.959,5.784-5.78-.525-11.459-8.943-19.411-12.358a.849.849,0,0,0-1.1,1.151c5.3,12.123-3.965,30.631-17.941,31.984a.46.46,0,0,0-.286.811c2.508,2.092,9.288,8.565,10.241,18.088a2.225,2.225,0,0,1-2.55,2.571c-8.246-1.1-18.743-4.574-21.969-8.763a26.291,26.291,0,0,1-3.894-7c.164.407.307.806.475,1.222-.265-.592-.525-1.21-.714-1.764.046.181.168.353.239.542-3.541-9.241-2.193-18.411-36.193-56.558-.16-.155.067-.428.206-.34,11.846,7.208,18.407,12.686,21.184,15.4.248.24.63-.055.512-.382a157.788,157.788,0,0,0-13.5-28.027.664.664,0,0,0-.928-.227c-4.491,2.9-10.8,7.553-19.949,6.393-42.208-5.335-39.5-71.869-10.842-110.7a.968.968,0,0,0-1.411-1.3c-39.52,33.824-89.234,102.009-89.927,187.836q5.5,6.931,12.619,14.648a340.44,340.44,0,0,0,75.7,61.006l25.981,15.5L202.274,402.2C172.122,345.477,179.75,283.4,181.665,275.944M282.565,61.7c-.059-.122-.172-.265.109-.437.26-.13.521-.273.781-.412q1.077-.573,2.146-1.168,1.1-.624,2.2-1.264,1.128-.655,2.235-1.336,1.128-.687,2.235-1.4c.743-.475,1.479-.954,2.21-1.445s1.437-.975,2.151-1.474q1.04-.737,2.063-1.491c.655-.487,1.3-.987,1.945-1.491q.914-.725,1.8-1.479c.55-.47,1.092-.949,1.626-1.445.685-.638,1.789-2.054,1.979-2,.185.13-.172,1.546-.357,2.294-.206.84-.487,1.668-.756,2.491-.13.395-.26.79-.4,1.185-2.676,9.884-12.636,13.228-17.113,22.406-.126.256-.3.2-.323.008a44.62,44.62,0,0,0-2.436-7.574c-.55-1.2-1.84-3.44-2.1-3.965M216.459,326.225a.751.751,0,0,1,1.441-.055c1.668,4.852,6.7,11.333,17.559,13.644,6.578,1.441-1.164,7.981-9.9,5.415-7.036-2.172-11.791-9.989-9.1-19" transform="translate(0 0.001)" fill="#00381c" opacity="0.09"/>
</svg>
