<svg xmlns="http://www.w3.org/2000/svg" xmlns:xlink="http://www.w3.org/1999/xlink" width="587.772" height="567.961" viewBox="0 0 587.772 567.961">
  <defs>
    <clipPath id="clip-path">
      <rect id="Rectangle_274" data-name="Rectangle 274" width="587.772" height="567.961" fill="none"/>
    </clipPath>
  </defs>
  <g id="Group_29" data-name="Group 29" opacity="0.06">
    <g id="Group_28" data-name="Group 28" clip-path="url(#clip-path)">
      <path id="Path_97" data-name="Path 97" d="M404.743,168.995a7.06,7.06,0,0,1-.172,11.176c-4.226-4.978-6.126,6.67-5.554,9.04-18.14-7.049-2.229-26.478,5.726-20.216M387.21,104.484a3.709,3.709,0,0,1-3.277,1.251,3.621,3.621,0,0,1-2.85-4.385,3.89,3.89,0,0,1,4.308-3.239c.045,0,.066.027.106.034-1.447-7.725-2.863-17.417-14.609-17.5,0,0-14.479,35.308,20.444,26.9-2.036-.056-3.269-1.238-4.122-3.059M555.3,328.4a48.537,48.537,0,0,0,16.574,5.509c-68.071,20.444-83.348-68.943-85.053-83.186-1.877,27.681,8.647,53.758,8.647,53.758-34.425-29.089-18.392-89.7-49.726-101.563,23.983,36.737,30.088,84.154-6.715,120.8-21.393,29.7,4.565,17.748-67.27,75.576-3.112,8.1-11.754,16.847-23.376,20.494-4.727,1.485-35.926,20.243-47.208,34.152a26.6,26.6,0,0,1-8.8,10.6c-6.33,11.129,2.113,20.585,2.113,20.585-8.478,20.158-33.155,24.619-42.139,12.653a54.316,54.316,0,0,1-4.761-25.393c23.41-23.572,9.281-21.141,27.477-35.565,3.947-3.054,12.971-4.97,12.971-4.97,46.418-24.927,32.89-37.4,63.466-53.318,4.968-3.173,9.928-12.934,14.037-27.644-14.58,10.535-31.928,20.211-58.021,25.258-20.5,8.833-28.45,26.462-72.75,40.509a76.721,76.721,0,0,0-15.627,7.359c-30.16,33.394-27.177,43.454-42.182,52.316-5.556,10.153,5.874,6.59-3.247,29.632,0,0-34.473,8.491-47.627.159-.628-6.633,2-13.427,4.387-18.063-21.449,14.167-47.714,27.472-60.086,47.03-2.341,2.447-6.548,4.472-8.915,7.11-6.346,5.909-2.309,10.124-2.309,10.124a44.247,44.247,0,0,1-4.475,15.643H0c4.878-18.1,13.52-27.066,13.742-27.228l13.5-8.873c1.514-6.455,13.106-12.854,17.1-15.068,10.853-6.01,28.8-17.74,49.721-34.415a14.034,14.034,0,0,1-8.284-8.008,8.394,8.394,0,0,0,.331-1.54L86.1,472.8c.342-4.493-4.668-5.567-4.125-9.416,2.879-20.587-12.555-12.624-16.693-31.31-10.575-26.26,7.195-48.844,27.162-74.128,12.913-16.325,21.3-35.539,37.3-52.372,8.435-41.654,52.5-94.047,99.712-117.728-16.526-4.549-13.332-33.01-13.332-33.01,17.764,16.089,27.665,2.184,27.938,1.689s7-15.105-17.645-6.752c0,0,4.544-9.594,19.158-13.472-16.205-12.478-6.755-29.664-6.755-29.664,4.931,23.148,38.447-2.5,48.422-17.531-11.749-10.026-20.953,1.575-20.953,1.575,4.9-22.119,25.324-39.422,42.593-42.672-2.548-7.873-15.246-3.483-15.246-3.483,22.618-24.553,43.854-9.631,54.18-16.29,0,0-13.093-1.652-15.068-16.245,12.7,7.566,26.263,1.88,38.022-1.095a113.426,113.426,0,0,1,9.8-7.3c3.788-2.455,7.29-4.324,10.254-3.316,5.159,1.75,4.952,7.714,2.457,10.243,7.144,1.593,13.133,4.713,16.128,8.451-.62-7.354-8.565-12.3-8.565-12.3,12.314.925,20.1,4.167,24.969,9.472,9.636-3.364,15.643-6.943,18.933-9.7.583-1.7,1.845-4.178,3.725-4.658,8.944-2.309-2.789,33.37-13.689,45.665A76.5,76.5,0,0,1,442.463,75.5c2.778,7.383,7.521,15.166,1.4,24.272,0,0-1.254,1.861-2.943,4.655-.888,9.1-2.624,19.2-6.7,27.522a73.863,73.863,0,0,0-3.3,21.382c11.911-8.682,29.1-16.025,49.954-10.246a38.639,38.639,0,0,0-13.854,4.2c30.976-3.642,62.753,7,73.614,47.348,0,0-14.084-27.564-44.936-32.379,83.8,34.035,16.234,133.353,92.08,154.592-11.823,8.244-22.652,11.611-32.469,11.561M428.668,20.033c.064.111.117.233.18.347a22.982,22.982,0,0,1,1.283,2.669,32.871,32.871,0,0,1,1.72,5.419c2.556-6.9,9.84-8.883,11.659-15.99l.005-.005.008-.034a12.664,12.664,0,0,0,.342-1.89c-3.626,3.857-9.665,6.41-15.2,9.485M195.692,439.688c-8.96,6.267-19,13.218-30.608,20.272-1.829,1.927-3.714,3.884-5.731,5.922-6.171,2.683-8.56,5.734-7.242,7.682-2.6,4.051-7.444,6.439-13.456,9.655,1.641,2.434,20.881,2.855,28.593-.119-5.3-2.667-7.229-5.148-8.788-9.591a12.921,12.921,0,0,0,4.462-1.05c1.9-.9,7.6-5.588,9.22-9.814,4.981-5.071,13.705-13.475,23.551-22.957M369.021,292.33a22.853,22.853,0,0,1-17.828,10.993c9.162-12.8,12.751-36.334,2.134-62.915-8.87,59.781-52.436,55.182-78.407,62.074-30.918,8.2-68.052,36.514-49.5,59.567-4.607,6.057-10.983,13.756-18.419,21.944-.244.27-.475.533-.726.806-4.546,5.487-8.852,10.471-12.929,15.012-32.479,36.026-50.657,44.226-59.394,54.225a24.111,24.111,0,0,0-4.292,6.794c-17.616,16.908-61.722,46.047-78.041,57.714-2.195,1.37-4.872,3.886-6.02,4.082-5.493.938-12.223,5.909-11.929,9.965-3.091,3.693-5.286,5.668-13.512,10.506a2.569,2.569,0,0,0,.382.66c.029.037.064.069.1.1a3.44,3.44,0,0,0,.528.5c.05.037.111.074.164.111a4.889,4.889,0,0,0,.6.366,7.474,7.474,0,0,0,.8.355l.053.024c4.488,1.726,13.5,1.166,19.715-2.693a9.951,9.951,0,0,1-5.225-7.773c.954.538,4.634,2.023,10.537-.164,5.9-2.166,4.965-6.675,10.439-11.264,3.568-2.99,21.112-10.728,31.952-20.611,11.924-8.772,26.25-21.544,37.535-29,9.132-6.036,9.9-7.539,9.9-7.539,32.575-2.7-5.053-26.34,119.987-87.248,26.658-13.634-6.479-15.481-31.758-6.275a62.366,62.366,0,0,1,23.469-18.071,41.437,41.437,0,0,0,10.659-17.6c4.321-13.753,12.717,7.91,22.257,8.57,11.691.8,26.438-17.236,45.169-15.018,17.425,2.054,38.484-15.177,41.259-33.77.138-1.437.257-2.911.342-4.435M113.651,418.374c-2.269,11.646-6.577,13.4-5.975,20.216,8.719.695,16.881,5.747,18.7,13.188a72.679,72.679,0,0,1,16.515-13C153.415,432.933,176.9,411.553,203.77,373a36.886,36.886,0,0,1-15.983-6.357c-9.824-5.676-21.436-6.911-30.9-.215-25.446,19.919-45.3,26.735-43.237,51.95M385.714,198.807q-.255-.64-.475-1.283a19.543,19.543,0,0,0,2.786,5.392c2.415,3.322,10.893,6.01,16.587,6.444.225-9.583-7.2-11.266-7.606-15.447,4.09.464,7.47-6,11.471-7.346,5.063-1.723,4.692-12.788.793-16.913A32.871,32.871,0,0,1,423.962,180.1l.021.029a8.9,8.9,0,0,1,.528.75,13.2,13.2,0,0,1,7.036-7.473s-.106-.724-4.037-3.589c-.119-.074-.583-15.59-2.134-25.306-1.583-9.962-.931-18.686-1.869-30.761-.626-8.011-1.736-15.969-1.657-24.047a44.123,44.123,0,0,1,1.283-10.85c.891-3.335,2.858-7.009,1.7-10.31a52.216,52.216,0,0,0-9.408-15.662c.162.183-1.095,3.16-1.132,3.634a18.233,18.233,0,0,0,.2,4.573c.432,3.237-.92,6.179-.811,9.429.1,3.452,2.956,6.256,3.518,9.573.5,2.736.461,5.607.721,8.369.368,3.754,1.728,14.718,1.347,18.461-.273,2.614-.435,6.171.649,9.154,1.14,3.2,1.055,6.378.957,9.771-.053,1.784.692,11.2,1.044,13.371,0-.011,0,.019.013.111.323,2.59.851,19.689-1.487,28.8a.543.543,0,0,1-.281.313c-18.122-50.787-5.411-50.32-18.339-69.786-.294,4.006-5.106,10.909-5.106,10.909-7.123-16.714,7.818-33.01-14.567-39.814a49.135,49.135,0,0,1-17.618.276c4.981-1.49,8.051-3.457,9.954-5.35A32.754,32.754,0,0,1,354.531,58.7s16.038.215,24.757-5.055c-.594-13.241,14.493-10.938,9.093-31.064.758,19.529-12.793,13.477-16.637,25.661-10.773-28.58,17.679-44.92,17.679-44.92a52.257,52.257,0,0,0-12.724,7.8l-.005.005.032-.037c-7.894,6.5-16.173,17.433-13.674,33.267C350.9,50.726,297.939,85.411,253.4,157.694c-3.624,6.3-10.747,18.986-14.238,25.878-20.929,13.292-87.348,56.669-97.83,127.979-18.676,16.128-24.895,35.432-38.388,49.559-13.069,13.705-24.81,25.688-29.526,37.508a9.5,9.5,0,0,0-1.487,1.819c-1.514,2.479-3.555,4.393-3.611,7.4-.106,5.066.133,13.059,8.663,13.141,4.143.034,12.658-6.14,13.96-10.2a4.578,4.578,0,0,0,.2-2.574c-.334-1.355-1.543-2.187-3.049-2.831,4.361-10.89,44.984-44.637,56.311-48.989,12.231-4.705,14.718-10.805,10.657-16.205a57.79,57.79,0,0,1-5.047-25.46c0,.048-.008.087-.008.138a38.78,38.78,0,0,1,1.148-8.639s21.451,44.143,74.961,4.695c-62.472-26.714-8.934-97.223.681-102.689-31.042,60.433,9.5,66.751,47.5,35.443-5.1,14.729-13.737,29.1-29.855,40.255,40.952-3.391,56.624-18.827,66.266-31.559-9.44,5.09-15.643,2.362-15.643,2.362-24.754-41.5-1.535-89.162-1.535-89.162a84.559,84.559,0,0,0,10.312,38.987C293.48,135.3,322.044,90.715,349.447,68.368c-22.358,28.643-29.041,77.381,6.662,82.54,5.835.655,8.886-2.508,9.374-4.753a124.618,124.618,0,0,1,10.628,22.968c-1.318-1.469-5.7-5.943-15.129-11.813,23.935,28.394,21.9,34.595,24.733,41.5m11.248,19.49c-8.544-1.946-11.945-7.049-11.431-11.065-2.927,7.1-.39,13.273,4.756,14.912,5.906,1.872,11.137-2.821,6.675-3.846m35.3-23.3a14.86,14.86,0,0,1-5.519,6.071c-3.184,1.8-.087,11.137-7.759,11.794-.05,1.333-.019,19.532-14.249,15.951a57.1,57.1,0,0,1-10.254.074c11.343,39.218,27.75,35.716,31.658,2.277,21.982,42.155-17.321,82.418-17.321,82.418C472.469,279.446,457.322,226.056,432.26,195" transform="translate(0 0)" fill="#1a1818"/>
    </g>
  </g>
</svg>
