<svg id="Group_303" data-name="Group 303" xmlns="http://www.w3.org/2000/svg" xmlns:xlink="http://www.w3.org/1999/xlink" width="53.848" height="33.183" viewBox="0 0 53.848 33.183">
  <defs>
    <clipPath id="clip-path">
      <rect id="Rectangle_531" data-name="Rectangle 531" width="53.848" height="33.183" fill="#006130"/>
    </clipPath>
  </defs>
  <g id="Group_87" data-name="Group 87" clip-path="url(#clip-path)">
    <path id="Path_249" data-name="Path 249" d="M75.4,28.447a.738.738,0,0,1-.738-.738V3.807a2.335,2.335,0,0,0-2.332-2.332H36.16a2.336,2.336,0,0,0-2.333,2.332v23.9a.738.738,0,1,1-1.475,0V3.807A3.812,3.812,0,0,1,36.16,0h36.17a3.812,3.812,0,0,1,3.807,3.807v23.9a.738.738,0,0,1-.737.738" transform="translate(-27.322)" fill="#006130"/>
    <path id="Path_250" data-name="Path 250" d="M5.164,181.359A5.17,5.17,0,0,1,0,176.2a.738.738,0,0,1,.737-.737H19.72a1.685,1.685,0,0,1,1.521.967.2.2,0,0,0,.183.117H32.393a.206.206,0,0,0,.184-.118,1.683,1.683,0,0,1,1.519-.967H53.11a.738.738,0,0,1,.737.737,5.17,5.17,0,0,1-5.164,5.164Zm-3.615-4.426a3.683,3.683,0,0,0,3.615,2.952H48.683a3.683,3.683,0,0,0,3.634-3.05l-18.221.1a.2.2,0,0,0-.183.117,1.684,1.684,0,0,1-1.52.967H21.424a1.684,1.684,0,0,1-1.52-.967.2.2,0,0,0-.184-.117Z" transform="translate(0 -148.176)" fill="#006130"/>
    <path id="Path_251" data-name="Path 251" d="M121.5,97.374a13.987,13.987,0,0,1-9.26-3.491.735.735,0,0,1-.25-.554V87.758c.55.227.986.483,1.428.695l.047,4.577A12.7,12.7,0,0,0,121.5,95.9a12.541,12.541,0,0,0,8.064-2.932l-.029-4.271c.475-.267.9-.5,1.345-.8l.13,5.437a.74.74,0,0,1-.249.554,13.991,13.991,0,0,1-9.261,3.491" transform="translate(-94.579 -74.113)" fill="#006130"/>
    <path id="Path_252" data-name="Path 252" d="M88.018,38.722a.723.723,0,0,1-.3-.065l-14.938-6.7a.738.738,0,0,1,0-1.345l14.938-6.7a.731.731,0,0,1,.6,0l14.938,6.7a.737.737,0,0,1,0,1.345l-14.938,6.7a.73.73,0,0,1-.3.065m-13.3-7.364,13.339,5.834,13.271-5.986-13.3-5.818Z" transform="translate(-61.094 -20.135)" fill="#006130"/>
    <path id="Path_253" data-name="Path 253" d="M81.618,78.864a.738.738,0,0,1-.738-.737v-6.5a.738.738,0,1,1,1.475,0v6.5a.738.738,0,0,1-.737.737" transform="translate(-68.304 -59.862)" fill="#006130"/>
    <path id="Path_254" data-name="Path 254" d="M74.612,116.774a2.028,2.028,0,1,1,2.028-2.028,2.03,2.03,0,0,1-2.028,2.028m0-2.581a.553.553,0,1,0,.553.553.554.554,0,0,0-.553-.553" transform="translate(-61.298 -95.192)" fill="#006130"/>
    <path id="Path_255" data-name="Path 255" d="M73.316,134.467a.738.738,0,0,1-.725-.879l.717-3.678a.738.738,0,0,1,.723-.6.8.8,0,0,1,.649.385c-.042-.193.143-.328.359-.371h.039a.76.76,0,0,1,.826.584l.717,3.677a.739.739,0,0,1-.725.879Zm.876-1.376.911-.1-.488-2.069Z" transform="translate(-61.292 -109.207)" fill="#006130"/>
  </g>
</svg>
