<svg xmlns="http://www.w3.org/2000/svg" width="17.973" height="12.753" viewBox="0 0 17.973 12.753">
  <g id="Group_11" data-name="Group 11" transform="translate(-63.358 -210.415)">
    <path id="Path_82" data-name="Path 82" d="M72.521,223.168c-1.549-.038-2.918-.047-4.284-.113a23.662,23.662,0,0,1-2.781-.273,2.093,2.093,0,0,1-1.733-1.676,13.84,13.84,0,0,1-.317-2.654,29.072,29.072,0,0,1,.046-4.033,14.319,14.319,0,0,1,.258-1.885,2.166,2.166,0,0,1,1.9-1.793,20.764,20.764,0,0,1,2.1-.2q3.784-.205,7.572-.07c1.12.038,2.24.121,3.358.2a2.726,2.726,0,0,1,1.407.444,2.414,2.414,0,0,1,.988,1.644,22.412,22.412,0,0,1,.275,3.144,28.751,28.751,0,0,1-.144,3.978,7.494,7.494,0,0,1-.226,1.3,2.172,2.172,0,0,1-1.87,1.644,19.08,19.08,0,0,1-2.048.2C75.466,223.092,73.9,223.126,72.521,223.168ZM70.563,219.5l4.656-2.72-4.656-2.719Z" transform="translate(0 0)" fill="#006130"/>
  </g>
</svg>
